<?xml version="1.0" encoding="UTF-8"?>
<svg id="_圖層" data-name="圖層" xmlns="http://www.w3.org/2000/svg" viewBox="0 0 3456.5 864">
  <defs>
    <style>
      .cls-1 {
        font-size: 54px;
        stroke: #000;
      }

      .cls-1, .cls-2, .cls-3, .cls-4, .cls-5, .cls-6 {
        stroke-miterlimit: 10;
      }

      .cls-1, .cls-7 {
        fill: #fff;
      }

      .cls-1, .cls-8, .cls-9 {
        font-family: HiraKakuStdN-W8-83pv-RKSJ-H, 'Hiragino Kaku Gothic StdN';
      }

      .cls-2 {
        fill: none;
        stroke: #fff;
        stroke-width: 6px;
      }

      .cls-10 {
        letter-spacing: 0em;
      }

      .cls-11 {
        fill: #e542b4;
      }

      .cls-12 {
        fill: #ffdad2;
      }

      .cls-13 {
        fill: #ffe633;
      }

      .cls-14 {
        fill: #f67a1d;
      }

      .cls-15 {
        fill: #f2bbff;
      }

      .cls-16 {
        fill: #ffc892;
      }

      .cls-17, .cls-4 {
        fill: #ffd6bb;
      }

      .cls-18 {
        fill: #97ceff;
      }

      .cls-19 {
        fill: #b3efff;
      }

      .cls-20 {
        fill: #181012;
      }

      .cls-21 {
        fill: #3a0623;
      }

      .cls-22 {
        fill: #591806;
      }

      .cls-3 {
        fill: #d1d1d1;
        stroke: #afafaf;
        stroke-width: 2px;
      }

      .cls-23 {
        letter-spacing: 0em;
      }

      .cls-4 {
        stroke: #ffd6bb;
      }

      .cls-5 {
        fill: #ffa4d2;
        stroke: #ffa4d2;
      }

      .cls-6 {
        fill: #889fff;
        stroke: #97ceff;
      }

      .cls-24 {
        letter-spacing: 0em;
      }

      .cls-25 {
        letter-spacing: -.25em;
      }

      .cls-8 {
        fill: #1b218a;
      }

      .cls-8, .cls-9 {
        font-size: 260px;
      }

      .cls-9 {
        fill: #ff0;
      }

      .cls-26 {
        fill: #fff039;
        opacity: .5;
      }
    </style>
  </defs>
  <rect id="_右長方" data-name="右長方" class="cls-11" x="1204" width="2252" height="864"/>
  <rect id="_左長方" data-name="左長方" class="cls-26" width="1517" height="765"/>
  <rect id="_底部長方" data-name="底部長方" class="cls-15" x=".5" y="723" width="3456" height="141"/>
  <text id="_需求量" data-name="需求量" class="cls-1" transform="translate(1543.55 173.41) scale(.91 1)"><tspan x="0" y="0">社團法人台灣黃絲帶愛網關懷協會-需求數</tspan><tspan class="cls-25" x="997.6" y="0">量：</tspan><tspan class="cls-23" x="1078.6" y="0">10 台</tspan><tspan x="0" y="101.07">社團法人屏東縣躍愛全人關懷協會-需求數</tspan><tspan class="cls-25" x="997.6" y="101.07">量：</tspan><tspan class="cls-23" x="1078.6" y="101.07">26 台</tspan><tspan x="54" y="202.14">臺東縣原住民復基部落文化協會-需求數</tspan><tspan class="cls-25" x="997.6" y="202.14">量：</tspan><tspan class="cls-23" x="1078.6" y="202.14">25 台</tspan><tspan x="108" y="303.21">社團法人臺東縣友善關懷協會-需求數</tspan><tspan class="cls-25" x="997.6" y="303.21">量：</tspan><tspan class="cls-23" x="1078.6" y="303.21">30 台</tspan><tspan x="127.77" y="404.28">社團法人IPOWER</tspan><tspan class="cls-24" x="594.86" y="404.28">培</tspan><tspan class="cls-10" x="648.49" y="404.28">力</tspan><tspan x="702" y="404.28">學社-需求數</tspan><tspan class="cls-25" x="997.6" y="404.28">量：</tspan><tspan class="cls-23" x="1078.6" y="404.28">10 台</tspan></text>
  <g id="_文字條" data-name="文字條">
    <line class="cls-2" x1="2730.12" y1="618" x2="2730.12" y2="92"/>
    <g>
      <ellipse class="cls-7" cx="2729.5" cy="158.59" rx="21.5" ry="19.59"/>
      <ellipse class="cls-7" cx="2729.5" cy="259.31" rx="21.5" ry="19.59"/>
      <ellipse class="cls-7" cx="2729.5" cy="360.04" rx="21.5" ry="19.59"/>
      <ellipse class="cls-7" cx="2729.5" cy="460.76" rx="21.5" ry="19.59"/>
      <ellipse class="cls-7" cx="2729.5" cy="561.48" rx="21.5" ry="19.59"/>
    </g>
  </g>
  <g id="_男生" data-name="男生">
    <g id="_後置" data-name="後置">
      <g id="_頭部" data-name="頭部">
        <g id="_臉部" data-name="臉部">
          <path class="cls-12" d="M1097.87,149.76c-17.47,7.92-15.02,44.54-13.94,60.72,1,14.91,4.37,25.99,6.68,34.67,3.16,11.87,7.85,19.88,8.78,21.68,3.39,6.58,8.4,16.29,17.98,26.38,4.07,4.28,19.06,19.27,42.48,26.8,9.31,2.99,20.34,4.93,26.09,5.94,8.3,1.46,12.44,2.19,15.91,2.23,8,.09,12.09-1.43,14.43,.94,2.18,2.2,.48,5.45,.28,10.64-.18,4.47,.58,10.76,4.81,18.51,14.58-8.98,31.19-20.72,48.05-35.92,11.94-10.76,21.91-21.36,30.17-31.15-7.97-4.77-14.76-11.19-19.74-18.66-1.13-1.7-2.21-3.61-1.89-5.59,.32-2.03,2.01-3.62,3.64-5.02,7.13-6.15,14.76-11.81,22.8-16.91,5.53-3.51,11.61-7.16,13.93-12.97,1.22-3.03,1.25-6.36,.97-9.57-1.35-15.5-10.14-30.28-23.54-39.63-6.34-4.42-15.15-7.64-22.07-3.97-4.73,2.51-7.1,7.49-10.36,11.54-4.75,5.9-11.91,10.12-19.69,11.6-9.47-6.66-13.16-18.27-14.14-29.25-.98-10.98,.15-22.17-2.24-32.96-.25-1.12-.58-2.31-1.51-3.06-1.15-.93-2.85-.92-4.36-.76-13.57,1.49-21.81,7.43-21.81,7.43-9.52,6.55-23.92,8.93-38.11,9.48-10.86,.42-22.39-.31-36.8-1.54-22.24-1.9-23.02-3.3-26.79-1.59Z"/>
          <path class="cls-12" d="M1097.11,148.47c-7.21,3.34-10.89,11.06-12.82,18.36-2.3,8.71-2.72,17.9-2.62,26.86,.09,9.21,.58,18.56,1.95,27.67,.86,5.69,2.12,11.31,3.58,16.88s2.88,11.12,4.92,16.49c1.53,4.02,3.33,7.93,5.36,11.72,1.89,3.51,3.67,7.07,5.72,10.49,4.87,8.14,10.87,15.6,17.87,22s14.91,11.94,23.37,16.28c11.33,5.81,23.54,8.94,35.99,11.26,5.18,.97,10.38,1.94,15.59,2.67,4.65,.65,9.18,.48,13.86,.21,1.5-.09,3.57-.38,4.89,.47,1.61,1.03,1.08,3.3,.84,4.9-.79,5.25-.73,10.3,.75,15.44,.88,3.08,2.18,6.04,3.7,8.86,.38,.7,1.38,.95,2.05,.54,23.21-14.31,44.72-31.39,63.72-50.96,5.12-5.27,10.06-10.73,14.8-16.34,.62-.74,.58-1.82-.3-2.36-6.02-3.64-11.42-8.23-15.9-13.66-1.09-1.32-2.11-2.7-3.07-4.12s-2.21-3.15-1.93-4.95c.27-1.7,1.84-2.99,3.06-4.05,1.45-1.26,2.93-2.49,4.42-3.7,6.06-4.93,12.44-9.44,19.04-13.62,5.28-3.35,11.16-6.99,13.67-13.01,1.41-3.38,1.48-7.1,1.13-10.69-.3-3.16-.88-6.29-1.74-9.34-1.76-6.22-4.66-12.13-8.44-17.36s-8.63-10.06-14.07-13.84-12.07-6.54-18.69-5.57c-3.17,.46-6.03,1.94-8.35,4.13s-4.03,4.9-5.87,7.46c-3.87,5.4-9.22,9.5-15.52,11.7-1.58,.55-3.2,.98-4.85,1.3l1.16,.15c-13.27-9.47-13.66-27.18-13.93-41.87-.08-4.63-.22-9.26-.81-13.86-.44-3.43-.57-8.85-4.46-10.23-1.78-.63-3.75-.31-5.56-.06-2.02,.28-4.03,.66-6.01,1.15-3.17,.79-6.26,1.88-9.24,3.22-3.55,1.6-6.6,3.95-10.08,5.67-7.18,3.55-15.32,5.12-23.23,5.96-16.44,1.76-33.09,.37-49.49-1.13-5.6-.51-11.17-1.19-16.76-1.82-2.07-.23-4.25-.52-6.27,.13-.49,.16-.96,.37-1.43,.58-1.76,.79-.23,3.38,1.51,2.59,.44-.2-.14,.03,.25-.11,.18-.06,.36-.13,.54-.19,.34-.11,.69-.18,1.05-.24-.46,.08,0,0,.18,0,.21-.01,.43-.02,.64-.02,.49,0,.98,.03,1.47,.06,3.86,.29,7.7,.89,11.54,1.31,14.98,1.61,30.2,2.99,45.28,2.59,13.79-.37,29.07-1.92,40.82-9.8,2.99-2.01,6.34-3.5,9.74-4.65s6.82-1.96,10.33-2.41c1.48-.19,3.81-.67,4.75,.84s1.03,3.85,1.28,5.54c1.29,8.49,.77,17.13,1.26,25.68,.4,6.9,1.54,13.75,4.32,20.11,1.31,3.01,3.02,5.82,5.12,8.34,1.08,1.29,2.26,2.49,3.55,3.57,.63,.52,1.27,1.09,1.96,1.52,.86,.53,1.77,.18,2.69-.03,6.83-1.6,13.29-5.28,17.98-10.52,4.36-4.87,7.1-12.03,14.11-13.57s14.12,2.41,19.43,6.47c10.93,8.37,18.72,20.99,20.62,34.69,.51,3.68,.79,7.68-.59,11.21-1.22,3.13-3.75,5.6-6.36,7.61-2.83,2.18-5.94,3.99-8.93,5.94-3.52,2.29-6.96,4.7-10.33,7.22s-6.46,4.98-9.57,7.61c-2.75,2.33-5.94,4.98-5.25,9,.32,1.84,1.34,3.47,2.38,4.99s2.14,2.98,3.3,4.4c2.36,2.88,4.98,5.55,7.82,7.96s5.71,4.46,8.82,6.33l-.3-2.36c-17.8,21.06-38.32,39.77-60.88,55.62-5.56,3.91-11.25,7.64-17.03,11.21l2.05,.54c-2.69-4.98-4.54-10.46-4.62-16.16-.04-2.61,.44-5.14,.74-7.72,.25-2.14,0-4.33-1.72-5.83-1.32-1.14-3.02-1.46-4.71-1.51-2.34-.06-4.68,.24-7.01,.34-4.56,.19-8.91-.38-13.4-1.15-11.7-1.99-23.58-3.94-34.79-7.98-10.28-3.7-19.94-9.23-28.48-16.02-6.19-4.92-11.84-10.53-16.64-16.82-5.39-7.06-9.66-14.94-13.59-22.89-4.7-9.51-7.41-19.88-9.8-30.18s-3.28-20.04-3.74-30.23c-.4-8.75-.46-17.63,.81-26.31,1.09-7.44,3.06-15.94,8.8-21.26,1.22-1.13,2.61-2.03,4.12-2.73,1.75-.81,.23-3.4-1.51-2.59Z"/>
        </g>
        <g id="_頭髮" data-name="頭髮">
          <path class="cls-22" d="M1060.02,55.83c-2.67,6.69-4,10.03-4.38,12.69-1.2,8.41,2.32,10.03,4.92,23.59,.97,5.06,1.33,10.48-.67,15.29-1.65,3.97-5.07,7.06-7.4,10.73-6.26,9.86-3.76,22.81,2.96,32.35,6.71,9.54,16.94,16.4,26.94,23.04,3.04-3.24,7.92-7.64,15-10.89,10.61-4.86,18.17-3.47,35.89-4.97,19.63-1.66,16.61-3.9,33.01-4.89,16.61-1.01,21.11,1.2,38.91,.27,11.08-.58,20.08-1.99,25.92-3.09-1.35,5.09-3.61,16.62,.73,30.32,4.39,13.84,13.15,22.43,17.27,26.01,1.32-2.13,9.87-15.38,28.01-19.11,17.34-3.57,30.55,4.21,32.85,5.62,10.35-26.12,16.59-48.66,20.48-65.5,10.48-45.39,5.61-56.33,1.76-61.95-9.23-13.49-26.46-20.47-43.38-23.78-21.5-4.21-44.09-3.66-65.38,1.57-26.3,6.46-53.48,20.01-79.07,11.7-19.29-6.26-20.18-19.31-41.19-21.88-13.2-1.62-31.39,1.13-37.72,10.75-1.55,2.35-3.05,6.12-5.45,12.13Z"/>
        </g>
      </g>
      <g id="_表情" data-name="表情">
        <path class="cls-21" d="M1165.54,196.11c8.3-2.73,16.96-4.01,25.7-3.82,1.93,.04,1.93-2.96,0-3-8.98-.19-17.96,1.13-26.5,3.93-1.83,.6-1.04,3.5,.8,2.89h0Z"/>
        <g>
          <path class="cls-21" d="M1120.29,197.87c-6.94-1.59-14.16-1.54-21.09,.15-1.87,.46-1.08,3.35,.8,2.89,6.39-1.56,13.08-1.62,19.49-.15,1.88,.43,2.68-2.46,.8-2.89h0Z"/>
          <path class="cls-21" d="M1181.93,217.01c-2.11-.31-3.92,1.41-3.59,3.58,.16,1.03,1.03,2.17,2.17,2.17,1.07,0,2.02-1.05,2.25-2.03,.43-1.83-.79-3.93-2.72-4.15-.88-.1-1.94-.02-2.8,.56s-1.5,1.53-1.68,2.56c-.43,2.46,1.6,4.21,3.9,4.44s4.5-1.1,5.69-3.1,1.87-4.81,.55-6.79c-1.25-1.87-3.75-2.18-5.73-1.39-2.21,.88-3.45,2.9-3.89,5.18-.4,2.06-.74,4.62,.12,6.6,1,2.3,3.64,3.02,5.87,2.13,2.38-.94,3.52-3.16,4.24-5.48,.76-2.47,1.6-5.29,.58-7.81-.86-2.12-2.88-3.84-5.26-3.78-5.29,.12-6.53,6.79-6.51,10.89,.01,2.21,.42,4.41,1.83,6.18s3.7,2.35,5.75,1.38,3.38-3.39,4.01-5.52c.67-2.25,.67-4.73,0-6.98-.33-1.11-.83-2.18-1.46-3.16-1.05-1.61-3.65-.11-2.59,1.51,1.56,2.4,1.97,5.32,1.09,8.06-.54,1.68-2.47,4.87-4.3,3.02-.75-.75-1.12-1.9-1.26-2.93-.2-1.54-.08-3.28,.2-4.83,.32-1.76,1.36-5.2,3.83-4.56,1.06,.28,1.81,1.3,2.04,2.33,.37,1.63-.25,3.39-.71,4.93-.36,1.22-.76,2.69-1.8,3.53-.69,.55-2.05,1-2.69,.14s-.37-2.33-.29-3.3c.1-1.29,.26-2.71,1.04-3.8,.56-.78,1.57-1.26,2.53-1.14s1.16,1.04,.98,2c-.25,1.35-.92,2.89-2.24,3.5-.7,.32-2.21,.38-2.56-.36-.11-.25,.02-.62,.27-.86,.09-.08,.31-.17,.21-.15,.13-.02,.25,.02,.38,.02,.08,0,.61-.08,.26-.05,.03,0,.06,.01,.08,.06,0-.02,.13,.26,.11,.23,.03,.08,.05,.38,.02,.1,.02,.2,.04,.06,0,.09-.16,.07,.09-.13,.09-.13,.23-.05-.13,.06-.19,.09h1.51c-.26-.13-.02,0,.03,.16,.05,.19-.06,.05,0-.03-.11,.15-.01,0,.04-.12,0-.02,.05-.11,.09-.11,.11,.03-.17,.04-.28,.02,.8,.12,1.61-.2,1.85-1.05,.19-.71-.24-1.73-1.05-1.85h0Z"/>
          <path class="cls-21" d="M1110.22,222.89c-1.61,2.14-1.28,5.12,.48,7.05,.61,.67,1.95,.55,2.36-.3,1.01-2.15,1.26-4.51,.53-6.79-.27-.86-1.37-1.47-2.2-.9-2.75,1.9-2.78,5.77-.14,7.76,.51,.39,1.4,.21,1.82-.23,1.93-2.06,3.12-4.69,3.26-7.52,.07-1.33-.01-3-.89-4.06-.82-.99-2.1-1.31-3.31-.9-2.62,.89-3.59,3.66-3.82,6.17-.25,2.75,.57,5.59,2.18,7.82,.5,.69,1.7,1.13,2.36,.3,1.92-2.42,3.13-5.19,3.48-8.27,.17-1.45,.09-2.92-.17-4.35s-.94-3.09-2.66-3.25c-1.45-.13-2.85,.84-3.95,1.7-.95,.75-1.76,1.66-2.42,2.67-1.26,1.92-1.94,4.29-1.91,6.58,.04,2.43,.88,4.76,2.45,6.61,.98,1.16,2.49,2.08,4.06,1.82s2.4-1.43,2.96-2.76c1.32-3.13,1.97-6.55,1.84-9.95-.06-1.52-.14-3.25-1.01-4.55-.65-.97-1.67-1.65-2.82-1.89-2.49-.51-5.52,.57-6.72,2.92-1.62,3.17-.11,6.79,2.22,9.14,1.36,1.37,3.48-.75,2.12-2.12-1.24-1.25-2.39-3.12-1.94-4.96,.33-1.32,1.59-2.05,2.84-2.12,.64-.03,1.15,.05,1.56,.39,.52,.43,.63,1.5,.69,2.29,.2,2.46-.04,4.93-.71,7.3-.28,.98-.56,2.26-1.2,3.08-.47,.61-1.15-.04-1.55-.46-1.02-1.08-1.63-2.64-1.76-4.07-.29-3.05,1.09-6.3,3.7-8,.34-.22,.95-.51,1.12-.69-.08,.07-.17-.36-.04,.13,.08,.28,.14,.56,.19,.84,.21,1.12,.23,2.29,.11,3.43-.24,2.3-1.19,4.59-2.63,6.4l2.36,.3c-1.07-1.48-1.74-3.18-1.81-5.02-.05-1.41,.09-3.38,1.3-4.32,.12-.09,.55-.42,.72-.34-.23-.1-.08,.27-.08,.3,.1,.83,.18,1.64,.06,2.49-.24,1.8-1.1,3.47-2.33,4.79l1.82-.23c-.79-.6-.65-2.03,.14-2.58l-2.2-.9c.47,1.49,.44,3.05-.23,4.48l2.36-.3c-.92-1.01-.79-2.38,0-3.42,.49-.65,.1-1.68-.54-2.05-.77-.45-1.56-.11-2.05,.54h0Z"/>
          <path class="cls-21" d="M1136.76,226.4c.77,3.67,.54,7.47-.59,11.05s-3.27,6.55-5.73,9.44c-2.24,2.63-4.05,5.78-2.62,9.27,1.25,3.06,4.35,5.27,7.57,5.83,4.56,.8,9.07-.87,12.87-3.31,1.62-1.04,.12-3.64-1.51-2.59-3.03,1.94-6.66,3.54-10.35,3.04-2.62-.36-5.72-2.28-6.1-5.12-.41-3.15,3.11-5.79,4.8-8.04,2.03-2.69,3.52-5.81,4.34-9.07,.93-3.71,.99-7.55,.21-11.29-.39-1.89-3.29-1.09-2.89,.8h0Z"/>
          <path class="cls-21" d="M1157.07,283.07c6.21,3.96,15.81,1.16,18.53-5.77,.3-.75-.32-1.65-1.05-1.85-.85-.23-1.55,.29-1.85,1.05-2.02,5.16-9.68,6.81-14.12,3.98-1.63-1.04-3.14,1.55-1.51,2.59h0Z"/>
        </g>
      </g>
    </g>
    <g id="_前置" data-name="前置">
      <g id="_上衣" data-name="上衣">
        <g id="_衣服" data-name="衣服">
          <path class="cls-19" d="M1168.33,771.3c119.32-13.72,239.92-10.28,359.85-4.22,13.91,.7,30.51,.19,38.13-11.28,4.17-6.27,4.36-14.22,4.35-21.7-.09-84.45-7.57-168.87-22.34-252.03-2.55-14.37-5.43-29-12.76-41.67-7.43-12.84-19.01-22.9-31.37-31.3-26.73-18.16-57.53-29.46-87.49-41.85-40.86-16.9-80.72-36.12-119.32-57.53,1.22,6.92-5.46,12.5-11.38,16.46-20.37,13.62-42.86,27.84-67.4,26.02-9.5-.7-18.71-3.83-28.23-4.08-8.58-.23-17.05,1.88-25.28,4.32-23.42,6.93-45.99,16.62-67.08,28.8-9.14,5.28-18.1,11.09-25.4,18.65-7.48,7.73-13.02,17.04-18.48,26.25-22.86,38.56-45.72,77.12-68.59,115.67-11.91,20.08-23.84,40.22-33.29,61.52-25.81,58.19-32.11,123.11-29.38,186.48,82.21-6.42,164.42-12.83,246.63-19.25"/>
          <path class="cls-18" d="M1168.33,772.8c68.54-7.85,137.58-10.1,206.53-9.41,34.52,.34,69.03,1.41,103.52,2.87,16.9,.71,33.79,1.61,50.68,2.37,11.21,.5,24.41,.49,33.69-6.81,11.33-8.93,9.46-25.09,9.36-37.9-.14-17.4-.59-34.79-1.36-52.17-1.51-34.13-4.22-68.2-8.13-102.13s-8.15-67.01-15.14-99.86c-3.08-14.51-8.01-28.35-17.5-39.95-9.04-11.04-20.81-19.63-32.88-27.06-26.86-16.54-56.77-27.16-85.73-39.32-31.1-13.06-61.63-27.49-91.47-43.22-7.3-3.85-14.56-7.78-21.77-11.78-.89-.49-2.41,.11-2.26,1.3,1.27,9.95-12.18,16.29-19.09,20.73-9.04,5.82-18.41,11.35-28.47,15.23s-20.34,5.92-30.91,4.92c-11.16-1.05-21.82-4.79-33.16-3.78s-22.01,4.69-32.5,8.3-20.16,7.53-29.91,12.05c-9.91,4.59-19.63,9.69-28.97,15.35-8.81,5.34-17.25,11.44-24.04,19.26s-12.26,17.27-17.65,26.37c-6.16,10.38-12.31,20.76-18.47,31.14-12.31,20.76-24.62,41.52-36.93,62.29-11.98,20.21-24.36,40.26-35.21,61.12-10.16,19.52-18.46,39.89-24.52,61.05-12.04,42.01-15.92,86.02-15.17,129.59,.09,5.49,.27,10.97,.5,16.46,.03,.76,.66,1.57,1.5,1.5,64.13-5.01,128.26-10.01,192.39-15.02,18.08-1.41,36.15-2.82,54.23-4.23,1.91-.15,1.93-3.15,0-3-64.13,5.01-128.26,10.01-192.39,15.02-18.08,1.41-36.15,2.82-54.23,4.23l1.5,1.5c-1.87-44.09,.5-88.66,10.97-131.66,5.33-21.89,12.79-43.22,22.59-63.52s22.08-40.56,33.85-60.4c12.31-20.76,24.62-41.52,36.93-62.29,6.16-10.38,12.31-20.76,18.47-31.14,5.77-9.72,11.25-19.72,17.7-29.01,12.88-18.53,32.76-29.51,52.62-39.23,10.13-4.96,20.54-9.35,31.15-13.17s21.33-7.57,32.36-9.18c11.7-1.71,22.55,1.67,34.04,3.12,10.11,1.28,20.26-.06,29.91-3.27s18.86-8.08,27.59-13.41c4.5-2.75,8.91-5.64,13.29-8.56,3.58-2.4,7.18-4.93,9.89-8.34,2.31-2.91,3.64-6.3,3.16-10.04l-2.26,1.3c28.53,15.81,57.7,30.43,87.45,43.79s58.53,23.51,86.91,37.19c25.86,12.47,54.87,28.82,66.91,56.35,6.33,14.47,8.44,30.59,11.05,46.04,2.84,16.82,5.39,33.68,7.63,50.59,4.41,33.23,7.66,66.62,9.76,100.08,1.03,16.52,1.79,33.05,2.25,49.59,.24,8.48,.41,16.97,.5,25.46,.08,7.84,.61,15.91-.31,23.71-.85,7.14-3.92,13.54-10.25,17.29-5.24,3.11-11.5,4.16-17.5,4.53-6.83,.42-13.67-.09-20.49-.43-8.51-.42-17.02-.83-25.53-1.22-33.64-1.53-67.29-2.75-100.95-3.33-67.03-1.17-134.17,.16-200.94,6.54-8.26,.79-16.52,1.66-24.77,2.6-1.9,.22-1.92,3.22,0,3h0Z"/>
        </g>
        <polygon id="_領帶" data-name="領帶" class="cls-6" points="1239.84 408.61 1248.87 609.27 1143.53 588.58 1204.28 400.89 1195.84 367.64 1194.35 359 1205.45 348.77 1218.5 344.04 1233.31 343.64 1245.78 343.3 1250.87 347.53 1261.13 353.46 1265.17 363.27 1269.15 370.6 1269.31 376.62 1239.84 408.61"/>
        <g id="_袖子" data-name="袖子">
          <path class="cls-18" d="M1404.45,492.62c1.5,24.83,3.1,50.23-2.69,74.67-2.43,10.26-6.11,20.25-11.39,29.39-2.62,4.55-5.63,8.87-9.05,12.85-1.76,2.05-3.63,4.01-5.59,5.86-1.8,1.7-3.68,3.33-5.16,5.34s-2.38,4.51-1.98,7.07,1.86,4.75,3.36,6.77c2.89,3.88,6.46,7.15,10.45,9.89,8.18,5.6,17.78,8.86,27.24,11.57,11.79,3.38,23.7,6.39,35.59,9.42,12.4,3.17,24.83,6.23,37.29,9.18,25.08,5.95,50.25,11.47,75.52,16.57,3.06,.62,6.12,1.23,9.18,1.83,1.89,.37,2.69-2.52,.8-2.89-24.96-4.93-49.84-10.27-74.63-16.03-24.62-5.72-49.14-11.86-73.55-18.4-9.85-2.64-19.88-5.21-29.04-9.81-4.16-2.09-8.14-4.59-11.58-7.74-1.74-1.59-3.37-3.34-4.78-5.24s-3.27-4.45-2.92-7.06c.32-2.38,2.12-4.29,3.76-5.9,1.86-1.82,3.81-3.54,5.6-5.44,3.56-3.75,6.75-7.85,9.56-12.19,5.7-8.76,9.85-18.51,12.73-28.54,6.68-23.31,6.17-47.88,4.83-71.87-.17-3.1-.36-6.2-.55-9.29-.12-1.92-3.12-1.93-3,0h0Z"/>
        </g>
        <g id="_領口" data-name="領口">
          <path class="cls-19" d="M1231.25,321.37c1.31,1.6,.66,2.89,1.52,9.88,.46,3.68,1.05,6.67,1.49,8.64,2.22-2.24,6.03-5.96,11.1-10.22,5.17-4.34,9.2-7.2,9.9-7.71,5.71-4.15,17.09-17.22,41.78-55.64,8.46,13.79,25.73,19.19,41.52,23.52-8.28,9.5-12.2,21.86-15.32,33.97-7.69,29.88-11.78,60.65-12.13,91.46-30.63-15.88-59.57-34.92-86.17-56.7-14.88,5.01-30.01,10.14-42.74,19.22-3.79,2.7-7.36,5.76-11.51,7.88-6.25,3.2-13.45,4.11-20.5,4.23,1-2.01,2.61-5.17,4.68-8.99,8.32-15.34,23.12-42.09,44.94-54.97,.77-.46,6.08-3.54,13.75-5.34,4.79-1.13,14.32-3.36,17.7,.76Z"/>
          <path class="cls-18" d="M1230.19,322.43c.16,.21,.39,.9,.45,1.4,.15,1.35,.18,2.72,.29,4.07,.35,4.16,.99,8.31,1.89,12.39,.25,1.12,1.74,1.43,2.51,.66,6.08-6.14,12.64-11.82,19.62-16.92,2.1-1.54,4.05-3.16,5.87-5.03,7.32-7.51,13.46-16.27,19.46-24.84s12.2-17.96,18.07-27.09h-2.59c7,11.27,19.45,17.07,31.62,21.03,3.57,1.16,7.18,2.19,10.79,3.18l-.66-2.51c-10.47,12.13-14.35,28.34-17.89,43.58-4.03,17.35-6.85,34.98-8.45,52.71-.91,10.04-1.42,20.12-1.54,30.2l2.26-1.3c-21.79-11.31-42.76-24.21-62.65-38.6-5.02-3.63-9.97-7.35-14.84-11.16-2.46-1.92-4.89-3.87-7.31-5.84-.48-.39-.97-.93-1.54-1.18-.64-.27-1.21,0-1.82,.21-1.55,.52-3.09,1.04-4.64,1.57-11.16,3.81-22.34,7.96-32.46,14.12-5.79,3.52-10.81,8.33-16.87,11.38s-12.89,3.8-19.54,3.93l1.3,2.26c6.55-13.13,13.79-26.17,22.52-37.99,4.88-6.61,10.34-12.86,16.58-18.23,5.03-4.33,10.56-8.06,16.8-10.39,4.03-1.5,8.28-2.56,12.53-3.21,3.14-.48,7.92-1.13,10.27,1.59,1.26,1.46,3.38-.67,2.12-2.12-2.3-2.67-6.26-2.97-9.54-2.78-3.63,.22-7.24,1.01-10.75,1.91-7.07,1.83-13.41,5.03-19.22,9.4-13.4,10.08-23.44,24.06-31.93,38.35-4.25,7.16-8.25,14.51-11.97,21.96-.49,.98,.1,2.28,1.3,2.26,5.33-.11,10.73-.61,15.84-2.23s9.53-4.58,13.84-7.82c8.67-6.5,18.15-11.36,28.24-15.26,5.68-2.2,11.45-4.14,17.23-6.09l-1.46-.39c20.86,17.06,43.07,32.45,66.4,45.94,6.61,3.82,13.3,7.48,20.08,11,1,.52,2.24-.12,2.26-1.3,.21-17.53,1.6-35.05,4.21-52.39,1.3-8.62,2.89-17.2,4.77-25.71,1.77-8.01,3.67-16.04,6.22-23.84,2.64-8.07,6.22-15.95,11.81-22.42,.72-.84,.49-2.19-.66-2.51-11.79-3.24-24.48-6.8-33.91-15-2.61-2.28-4.89-4.88-6.72-7.83-.61-.98-1.98-.96-2.59,0-8.91,13.85-17.96,27.72-28.07,40.74-2.63,3.38-5.34,6.72-8.29,9.84-.96,1.02-1.96,2.01-3,2.95-.42,.38-.85,.74-1.28,1.1-.09,.07-.18,.14-.27,.22-.2,.16,.28-.21-.03,.02-.2,.15-.41,.3-.62,.45-7.47,5.41-14.51,11.4-21,17.95l2.51,.66c-.94-4.25-1.59-8.55-1.88-12.89-.15-2.24-.06-4.45-1.51-6.29-1.2-1.51-3.31,.62-2.12,2.12Z"/>
        </g>
      </g>
      <g id="_袖子-2" data-name="袖子">
        <path class="cls-18" d="M1115.14,517.57c-3.74,24.45-7.49,48.91-11.23,73.36s-7.46,48.74-11.19,73.11c-2.11,13.75-4.21,27.5-6.32,41.25-.29,1.89,2.6,2.7,2.89,.8,3.74-24.45,7.49-48.91,11.23-73.36s7.46-48.74,11.19-73.11c2.11-13.75,4.21-27.5,6.32-41.25,.29-1.89-2.6-2.7-2.89-.8h0Z"/>
      </g>
    </g>
  </g>
  <g id="_男生手臂" data-name="男生手臂">
    <path class="cls-12" d="M1118.21,476.26c-6.98-4.42-15.28,6.85-11.65,14.4s12.96,10.04,21.15,10.11,16.71-1.35,24.34,1.74c-5.4-.83-9.26,6.26-7.73,11.64,1.53,5.38,6.25,9.05,10.69,12.32-4.41-5.54-14.49-4.11-17.21,2.45s3.25,15.06,10.18,14.51c-3.8-4.97-12.76,.05-12.36,6.34,.4,6.29,6.93,10.62,13.06,10.9-2.69-4.52-10.22-3.52-12.8,1.04s-.93,10.69,2.56,14.59c3.49,3.9,8.43,6.05,13.26,7.91,40.37,15.52,85.03,18.58,123.39,38.8,21.39,11.27,39.92,27.43,58.23,43.44,38.88,33.99,77.75,67.98,116.63,101.96,11.34,9.92,22.85,19.94,36.24,26.63,25.35,12.65,56.64,11.77,81.17-2.28,7.36-4.21,14.18-9.59,19.34-16.42,8.81-11.63,12.23-26.54,14.97-41.02,1.32-6.98,2.53-14.27,.69-21.15-2.11-7.9-7.95-14.14-13.91-19.61-19.93-18.3-43.39-31.98-66.64-45.52-38.67-22.52-77.33-45.03-116-67.55-60.35-35.14-120.96-70.41-185.5-96.48-35.25-14.24-75.84-25.46-109.9-8.72"/>
    <path class="cls-12" d="M1118.96,474.97c-4.86-2.81-9.98,.04-12.67,4.43-3.23,5.27-2.56,11.34,1.61,15.85,11.34,12.26,29.98,3.46,43.74,8.72l.4-2.95c-5.93-.61-9.73,5.67-9.55,10.98,.24,7.06,6.59,11.95,11.76,15.77,1.45,1.07,2.85-1.15,1.82-2.36-5.05-5.94-15.78-4.82-19.33,2.23-3.83,7.61,2.82,17.64,11.24,17.29,1.36-.06,1.9-1.57,1.06-2.56-4.6-5.46-13.28-.89-14.71,5.11-1.98,8.35,7.21,14.2,14.35,14.69,1.11,.08,1.9-1.34,1.3-2.26-3.44-5.19-11.43-4.58-14.91,.32-4.56,6.43-.63,15.15,4.88,19.51,6.84,5.42,16.32,7.9,24.5,10.52,9.13,2.93,18.4,5.39,27.7,7.72,18.7,4.68,37.59,8.82,55.84,15.1,18.69,6.44,35.81,15.62,51.67,27.4s31.41,25.98,46.72,39.36c16.59,14.5,33.18,29.01,49.77,43.51,16.34,14.29,32.69,28.58,49.03,42.86,14.41,12.6,28.91,25.91,46.95,33.09,16.48,6.56,34.96,7.81,52.24,3.94,16.96-3.8,34.06-12.81,44.37-27.14,5.24-7.28,8.51-15.81,10.85-24.41,2.47-9.11,4.85-18.92,5.2-28.38s-3.32-17.22-9.48-24.05-13.82-12.98-21.28-18.65c-15.86-12.07-33.08-22.17-50.28-32.19-18.87-10.99-37.74-21.97-56.6-32.96-36.97-21.53-73.83-43.29-111.04-64.4-36.17-20.52-72.86-40.22-110.89-57.1-17.89-7.94-36.05-15.66-54.9-21.03-17.89-5.09-36.79-8.13-55.36-5.57-8.8,1.21-17.3,3.77-25.29,7.64-1.74,.84-.22,3.43,1.51,2.59,33.93-16.44,73.32-5.2,106.35,7.92,36.98,14.68,72.62,32.63,107.51,51.67,35.33,19.28,69.99,39.77,104.76,60.02,35.59,20.72,71.39,41.13,106.76,62.24,16.46,9.83,32.67,20.26,47.15,32.89,6.7,5.84,14.08,12.34,16.87,21.08,2.97,9.29,.15,19.69-1.83,28.92s-4.29,17.63-8.51,25.63-10.33,14.61-17.73,19.78c-14.38,10.04-32,15.02-49.48,14.7-18.27-.33-35.16-6.64-49.99-17.12-7.75-5.47-14.89-11.73-22.03-17.96-7.92-6.93-15.85-13.86-23.77-20.78-31.4-27.45-62.79-54.91-94.2-82.35-14.03-12.26-28.19-24.52-43.86-34.67-15.45-9.99-32.32-17.07-49.88-22.43s-35.71-9.22-53.54-13.87c-8.85-2.31-17.65-4.82-26.3-7.81-7.73-2.67-18.32-5.44-22.12-13.52-1.57-3.35-2.01-8.25,1.04-10.95,2.5-2.21,6.99-2.59,9,.44l1.3-2.26c-5.14-.36-12.18-4.21-11.55-10.29,.44-4.2,6.53-8.25,9.78-4.39l1.06-2.56c-6.32,.26-11.67-7.57-8.38-13.27,2.92-5.06,10.69-5.44,14.35-1.13l1.82-2.36c-4.03-2.98-8.88-6.54-10.08-11.72-.94-4.06,1.53-9.93,6.35-9.44,1.8,.18,1.86-2.39,.4-2.95-12.08-4.62-25.71,1.3-37.48-4.4-4.72-2.29-8.85-6.81-7.51-12.38,1.01-4.18,5.31-9.44,9.99-6.74,1.67,.97,3.19-1.62,1.51-2.59h0Z"/>
  </g>
  <g id="_筆電" data-name="筆電">
    <polygon class="cls-3" points="719.43 756.05 849.92 748.26 827.74 844.89 799.03 847 719.43 756.05"/>
    <polygon class="cls-3" points="871.6 563.5 1247.32 542.08 1176.19 815.63 808.3 846.75 871.6 563.5"/>
    <g>
      <path class="cls-5" d="M1032.1,665.21l1,38.36c4.37-3.12,8.05-5.86,10.91-8.03,5.16-3.92,7.42-5.8,9.71-7.94,2.58-2.41,3.88-3.61,4.82-4.88,4.82-6.47,4.63-13.57,4.54-15.55-.16-3.75-1.15-6.38-1.42-7.08-.95-2.41-2.13-4.05-2.6-4.68-1.3-1.73-2.61-3.46-5.07-4.61-2.5-1.16-4.82-1.08-5.87-1.03-.52,.02-2.72,.16-5.26,1.33-2.73,1.26-4.32,3-6.06,4.91-.99,1.09-2.27,2.66-3.52,4.73l-1.19,4.46Z"/>
      <path class="cls-5" d="M1030.83,664.89l1.01,38.72c-4.71-2.9-8.68-5.45-11.77-7.48-5.58-3.66-8.02-5.43-10.52-7.45-2.82-2.28-4.22-3.42-5.27-4.64-5.35-6.24-5.53-13.41-5.55-15.41-.04-3.79,.85-6.49,1.1-7.21,.86-2.48,1.99-4.2,2.45-4.86,1.26-1.81,2.53-3.64,5.02-4.93,2.54-1.31,4.95-1.35,6.05-1.36,.54,0,2.83,.01,5.54,1.05,2.91,1.11,4.65,2.78,6.56,4.61,1.14,1.09,2.63,2.69,4.1,4.84l1.29,4.12Z"/>
    </g>
  </g>
  <g id="_女生" data-name="女生">
    <g id="_後置-2" data-name="後置">
      <g id="_上半身" data-name="上半身">
        <g id="_衣服-2" data-name="衣服">
          <path class="cls-12" d="M390.75,355.88c19.26-5.84,34.83,4.51,50.5-.14,.78-.23,4.53-1.38,8.77-2.72,4.64-1.47,11.06-3.54,12.52-4.06,12.35-4.43,12.88-21.25,30.54-39.28,4.06-4.14,8.12-8.22,14.85-11.57,13.5-6.72,27-5.18,32.54-4.16,6.39,1.17,13.23,3.68,36.11,22.13,23.47,18.93,24.69,23.07,45.2,38.45,12.67,9.51,19.01,14.26,28.28,19.07,7.44,3.86,11.97,5.4,19.22,10.64,8.06,5.83,15.92,11.52,16.92,19.38,.73,5.77-2.7,9.01-13.3,22.69-18.56,23.94-17.67,26.42-29.31,38.01-8.96,8.92-13.44,13.38-21.03,16.7-13.83,6.05-27.18,3.88-36.56,2.24-56.11-9.84-84.16-14.76-97.74-19.66-15.35-5.54-35.91-13.09-60.08-28.13-33.93-21.1-56.93-45.72-71.41-64.21,4.32-2.05,10.9-5.13,19-8.77,9.36-4.22,14.04-6.33,14.98-6.61Z"/>
          <g>
            <path class="cls-16" d="M372.08,366.31c-15.98-2.94-68.09,18.48-129,93.27-32.62,40.05-46.73,73.83-77.07,140.46-10.12,22.21-20.25,48.06-9.46,69.92,3.37,6.84,8.69,12.88,10.32,20.3,1.53,6.95-.38,14.13-1.85,21.1-3.8,17.94-4.77,36.45-2.87,54.66,.77,7.37,2.27,15.23,7.62,20.45,6.17,6.02,15.67,6.9,24.36,7.44,90.49,5.61,180.99,11.23,271.48,16.84,98.01,6.08,197.29,12.09,293.77-6.23,4.88-27.08,11.48-53.87,19.77-80.15,5.88-18.67,12.64-37.2,15.68-56.51,6.66-42.33-4.94-85.15-17.09-126.25-16.24-54.95-36.68-113.72-84.8-145.93-45.28,25.46-94.93,45.67-146.98,48.48-67.73,3.66-131.59-32.58-141.39-52.12-1.12-2.24-5.86-12.93-17.18-19.97,0,0-6.78-4.21-15.3-5.78Z"/>
            <path class="cls-14" d="M372.48,364.86c-5.42-.95-11.14,.36-16.32,1.91-8.93,2.68-17.43,6.86-25.5,11.5-26.78,15.41-50.08,36.84-70.82,59.55-21.32,23.34-39.92,48.6-54.91,76.46-7.42,13.79-14.14,27.95-20.71,42.16-8.13,17.58-16.5,35.13-23.98,52.99-7.04,16.79-13.28,36.21-7.75,54.35,2.7,8.87,9.31,15.7,12.22,24.39,3.48,10.41-1.31,22.02-2.92,32.4s-2.29,20.51-2.08,30.83c.18,8.97,.35,18.91,3.53,27.42,6.67,17.85,27.8,16.4,43.54,17.38,44.19,2.74,88.38,5.48,132.57,8.22,44.14,2.74,88.27,5.48,132.41,8.21,42.92,2.65,85.88,5.19,128.89,5.6s85.6-1.33,127.99-7.18c10.41-1.44,20.78-3.13,31.1-5.08,.47-.09,.96-.58,1.05-1.05,5.78-31.9,14.21-63.02,24.18-93.85,4.92-15.21,9.66-30.54,11.79-46.43s1.81-31.03,.03-46.45c-3.54-30.65-12.49-60.52-21.54-89.92-7.48-24.3-15.95-48.48-27.81-71.04-13-24.71-30.46-47.11-53.78-62.84-.44-.3-1.07-.25-1.51,0-48.22,27.06-102.84,49.49-159.07,48.51-25.62-.45-51.14-6.13-74.85-15.73-16.75-6.78-34.69-15.66-47.28-28.98-4.73-5-6.97-11.42-11.17-16.82-6.86-8.82-16.41-14.35-27.32-16.52-1.89-.38-2.69,2.52-.8,2.89,10.63,2.11,19.86,7.49,26.36,16.25,3.53,4.76,5.54,10.33,9.45,14.83,11.57,13.32,28.95,22.21,44.86,29.09,22.89,9.92,47.53,16.11,72.46,17.65,27.57,1.7,55.45-2.89,81.85-10.64,30.46-8.94,59.4-22.44,87.03-37.94h-1.51c42.34,28.57,62.96,77.72,77.88,124.65,8.96,28.16,17.68,56.83,22.32,86.06,2.52,15.87,3.63,32.02,2.36,48.06-1.22,15.52-5.1,30.55-9.72,45.36-5.2,16.68-10.74,33.21-15.26,50.09-4.68,17.46-8.61,35.12-11.83,52.91l1.05-1.05c-41.37,7.81-83.42,11.22-125.48,12.01-41.96,.8-83.93-.94-125.81-3.31-42.79-2.42-85.56-5.23-128.34-7.88-42.92-2.66-85.84-5.32-128.76-7.99-10.78-.67-21.57-1.34-32.35-2.01-10.13-.63-20.38-.86-30.46-2.01-9.06-1.04-17.58-4.17-21.31-13.16s-3.61-19.27-3.74-28.55c-.14-10.65,.68-21.32,2.48-31.82,1.6-9.27,5.2-19.04,3.12-28.5-1.94-8.81-8.63-15.54-11.86-23.82-3.45-8.84-3.66-18.53-2.08-27.8,3.33-19.53,13-37.59,21.11-55.46,7.09-15.62,14.16-31.26,21.68-46.68,12.42-25.45,26.57-49.85,44.23-72.05,21.4-26.92,45.77-52.35,73.9-72.32,9.2-6.53,18.88-12.52,29.14-17.25,6.55-3.02,13.58-5.76,20.78-6.69,2.12-.28,4.35-.42,6.47-.05,1.89,.33,2.7-2.56,.8-2.89Z"/>
          </g>
        </g>
        <g id="_衣服樣式" data-name="衣服樣式">
          <path class="cls-13" d="M761.22,532.86c-22.33-6.77-45.02,2.84-63.71,14.67-9.15,5.79-17.96,12.16-27.5,17.33-2.14,1.16-4.31,2.25-6.51,3.27-.69,.32-1.38,.62-2.06,.93-1.39,.62,1.05-.42-.35,.16-1.26,.52-2.53,1.01-3.8,1.49-4.97,1.84-10.06,3.33-15.24,4.43-1.18,.25-2.37,.49-3.56,.7-.59,.11-1.19,.21-1.79,.3-.21,.03-2.06,.32-1.04,.17s-.83,.1-1.05,.13c-.75,.09-1.5,.17-2.25,.24-1.35,.13-2.7,.22-4.05,.29-5.1,.27-10.23,.13-15.3-.44-.39-.04-2.31-.32-.74-.08-.59-.09-1.19-.18-1.78-.28-1.19-.2-2.37-.43-3.55-.68-2.61-.55-5.19-1.23-7.74-2.02-2.23-.69-4.44-1.47-6.61-2.32-.54-.21-1.08-.43-1.62-.65,1.32,.55-.04-.03-.26-.12-1.33-.6-2.65-1.21-3.96-1.85-4.46-2.19-8.77-4.68-12.94-7.37-1.97-1.28-3.92-2.6-5.84-3.96-1.08-.77-2.15-1.55-3.22-2.34-.47-.35-.95-.71-1.42-1.06-.37-.28-1.6-1.23-.64-.48-8-6.24-15.5-13.06-23.02-19.86s-15.74-14.01-24.81-19.27c-9.7-5.63-20.45-8.81-31.67-9.24-22.81-.87-44.25,8.99-64.06,19.15-4.73,2.43-9.44,4.89-14.21,7.24-2.24,1.1-4.48,2.19-6.75,3.23-1.13,.52-2.26,1.03-3.4,1.53-.57,.25-1.14,.5-1.71,.74,1.3-.54-1.32,.52-1.29,.51-4.9,1.95-9.9,3.64-15.02,4.89-2.23,.55-4.47,.93-6.72,1.36-1.34,.26,1.54-.16,.18-.02-.49,.05-.99,.12-1.48,.17-1.12,.11-2.23,.2-3.35,.26-2.12,.12-4.25,.14-6.37,.06-1-.04-1.99-.09-2.99-.17-.62-.05-1.24-.12-1.86-.17-1.78-.14,.92,.18-.2,0-4.12-.68-8.17-1.6-12.09-3.07-.27-.1-1.72-.65-.6-.21,1.3,.51-.86-.39-.9-.41-.86-.4-1.71-.83-2.55-1.29-1.87-1.02-3.65-2.17-5.36-3.44,1.58,1.17-.45-.43-.9-.84-.7-.63-1.37-1.29-2.02-1.97s-1.24-1.43-1.88-2.12c1.19,1.28,.37,.51,.1,.13-.41-.59-.83-1.18-1.22-1.79-1.29-2.01-2.38-4.16-3.34-6.35,.54,1.24-.05-.14-.13-.34-.22-.56-.44-1.12-.65-1.68-.53-1.41-1.03-2.82-1.53-4.24-1.85-5.25-3.7-10.57-6.34-15.49-4.74-8.84-12.49-16.31-21.36-20.96-19.25-10.09-42.04-7.35-58.84,6.24-3.95,3.19-7.23,7.04-10.09,11.23-2.66,3.9-.86,10.15,3.23,12.31,4.57,2.41,9.47,.93,12.31-3.23,.3-.44,.62-.87,.92-1.32-.86,1.29-.16,.18,.07-.08,.69-.82,1.39-1.63,2.13-2.4,.84-.87,1.71-1.7,2.62-2.5,.4-.35,.83-.68,1.23-1.04,.74-.66-.93,.62,.42-.31,1.78-1.22,3.59-2.38,5.51-3.37,.35-.18,3.19-1.5,1.52-.79,1.24-.52,2.52-.97,3.81-1.37,2.07-.65,4.17-1.07,6.3-1.47-1.71,.32-.36,.04,.02,.01,.54-.04,1.08-.1,1.61-.13,1.35-.08,2.7-.1,4.05-.05,1.06,.04,2.12,.13,3.18,.24-1.95-.19,1.03,.21,1.53,.31,2.34,.49,4.6,1.2,6.84,2.03,.34,.12,1.53,.73,.05,0,.48,.23,.96,.44,1.44,.67,.95,.47,1.88,.97,2.8,1.5s1.81,1.09,2.68,1.69c.44,.3,.86,.61,1.29,.91-1.27-.89,.25,.2,.66,.55,1.6,1.36,3.11,2.83,4.5,4.4,.35,.39,.68,.8,1.02,1.2-.23-.27-.97-1.36,.03,.04,.68,.96,1.34,1.93,1.95,2.95s1.13,1.98,1.64,3.01c.33,.67,.65,1.35,.96,2.03,.09,.19,.65,1.59,.15,.34,.96,2.37,1.8,4.79,2.65,7.2,1.84,5.23,3.73,10.55,6.46,15.4,9.43,16.78,28.07,24.72,46.55,26.07,20.52,1.5,40.02-6.33,58.05-15.27,19.38-9.61,35.92-19.76,57.33-23.19,1.86-.3,.78-.11,.38-.06,.61-.07,1.23-.14,1.85-.2,1.38-.13,2.77-.23,4.15-.28,2.6-.1,5.22-.05,7.81,.17,.61,.05,1.22,.11,1.83,.18-1.42-.17,.11,.02,.34,.06,1.21,.21,2.42,.44,3.62,.72,2.62,.61,5.18,1.43,7.68,2.41-1.36-.53,0,0,.23,.1,.52,.24,1.04,.48,1.56,.73,1.03,.5,2.05,1.03,3.06,1.58,2.27,1.25,4.47,2.62,6.61,4.07,.96,.65,1.9,1.32,2.83,2.01,.47,.34,.93,.69,1.39,1.04-1.1-.84,.07,.06,.24,.2,2.05,1.64,4.06,3.32,6.04,5.04,15.33,13.32,29.87,27.52,47.42,38.01,18.12,10.84,38.7,16.91,59.92,15.71,22.06-1.26,42.51-9.1,61.02-20.9,9-5.74,17.69-11.98,27.1-17.05,2.15-1.16,4.34-2.25,6.58-3.25,.17-.08,1.9-.8,1.02-.45s.88-.34,1.05-.4c1.42-.55,2.86-1.06,4.31-1.52,2.31-.74,4.66-1.37,7.04-1.87,.59-.12,1.18-.24,1.78-.34,.21-.04,2.06-.34,1.03-.19s.82-.09,1.04-.11c.74-.07,1.49-.13,2.23-.18,2.54-.14,5.03,.03,7.57,.16,1.48,.08-1.2-.27,.25,.03,.58,.12,1.17,.21,1.75,.33,1.32,.28,2.61,.63,3.91,1.02,4.5,1.37,10.01-1.63,11.07-6.29s-1.46-9.61-6.29-11.07h0Z"/>
          <path class="cls-13" d="M286.21,537.4c-.86-1.78-2.5-3.21-4.11-4.29-1.22-.82-2.69-1.3-4.05-1.84-2.39-.96-4.7-1.48-7.28-1.75-2.98-.31-6.03,.41-8.67,1.79-1.11,.58-2.18,1.46-3.08,2.31-.96,.92-1.86,2.06-2.48,3.24-1.56,2.97-2.2,6.3-1.35,9.59s3.2,6.19,6.18,7.77c4.58,2.43,10.14,3.58,15.27,2.89s10.25-3.53,12.85-8.23c.92-1.66,1.43-3.25,1.68-5.09,.43-3.2-.57-6.34-2.81-8.68-2.63-2.75-6.17-3.28-9.74-3.68-4.21-.47-8.64,0-12.73,1.06-2.37,.61-4.67,1.55-6.87,2.59-3.73,1.77-6.36,5.95-6.15,10.1,.23,4.39,2.71,8.43,6.6,10.54,3.13,1.7,6.98,2.29,10.44,1.27s6.5-3.36,8.06-6.54c.99-2.03,1.49-3.8,1.63-6.07,.05-.76-.09-1.48-.2-2.24s-.16-1.48-.46-2.2l-.91-2.15c-.57-1.05-1.34-1.89-2.32-2.53-.56-.56-1.22-.94-1.99-1.16-1.07-.56-2.23-.82-3.47-.78-1.06-.13-2.11-.26-3.17-.4-2.12-.27-4.93,1.2-6.36,2.64-1.56,1.56-2.74,4.12-2.64,6.36s.87,4.74,2.64,6.36l1.82,1.41c1.4,.81,2.92,1.22,4.54,1.23,1.06,.13,2.11,.26,3.17,.4l-8.68-6.61c.14,.33,.23,.65,.3,1.01l-.32-2.39c.06,.44,.06,.86,0,1.31l.32-2.39c-.08,.44-.2,.85-.37,1.26l.91-2.15c-.16,.32-.33,.62-.54,.91l1.41-1.82c-.22,.28-.46,.53-.73,.76l1.82-1.41c-.29,.22-.58,.4-.91,.55l2.15-.91c-.42,.17-.83,.28-1.28,.34l2.39-.32c-.36,.03-.71,.02-1.07,0l2.39,.32c-.45-.07-.87-.17-1.29-.34l2.15,.91c-.41-.18-.78-.4-1.14-.67l1.82,1.41c-.27-.23-.51-.48-.73-.76l1.41,1.82c-.17-.25-.31-.49-.44-.77l.91,2.15c-.08-.19-.14-.39-.18-.59l.32,2.39c-.04-.2-.05-.4-.03-.6l-.32,2.39c.01-.2,.06-.39,.14-.57l-.91,2.15,.14-.27-1.41,1.82c.11-.16,.24-.31,.39-.43l-1.82,1.41c.61-.46,1.32-.74,2.02-1.04l-2.15,.91c2.34-.95,4.76-1.6,7.26-1.93l-2.39,.32c2.51-.31,5.02-.3,7.52,.03l-2.39-.32c.61,.09,1.2,.18,1.78,.38l-2.15-.91c.26,.11,.46,.23,.69,.39l-1.82-1.41,.18,.18-1.41-1.82c.11,.13,.2,.28,.26,.44l-.91-2.15,.08,.34-.32-2.39v.35c.11-.8,.22-1.6,.32-2.39-.07,.43-.19,.82-.35,1.23l.91-2.15c-.2,.44-.44,.84-.72,1.23l1.41-1.82c-.42,.54-.88,1-1.42,1.43l1.82-1.41c-.64,.47-1.31,.85-2.04,1.17l2.15-.91c-.77,.3-1.54,.5-2.35,.62l2.39-.32c-1.11,.13-2.2,.12-3.31,0l2.39,.32c-1.9-.26-3.76-.78-5.53-1.49l2.15,.91c-.56-.24-1.08-.52-1.57-.89l1.82,1.41c-.23-.2-.42-.4-.62-.64l1.41,1.82c-.14-.21-.26-.4-.37-.63l.91,2.15c-.12-.3-.19-.58-.24-.9l.32,2.39c-.02-.32-.01-.62,.03-.93l-.32,2.39c.06-.32,.15-.62,.26-.93l-.91,2.15c.2-.47,.46-.89,.77-1.3l-1.41,1.82c.28-.34,.58-.63,.91-.91l-1.82,1.41c.42-.32,.85-.57,1.33-.78l-2.15,.91c.5-.18,1.01-.29,1.54-.37l-2.39,.32c.72-.07,1.41-.06,2.13,.02l-2.39-.32c1.91,.27,3.71,.95,5.49,1.68l-2.15-.91c.45,.2,.88,.41,1.29,.68l-1.82-1.41c.23,.18,.41,.35,.61,.58l-1.41-1.82c.11,.15,.2,.31,.27,.48,.94,1.94,3.37,3.58,5.38,4.14,2.15,.59,5.02,.33,6.94-.91s3.61-3.08,4.14-5.38c.56-2.47,.19-4.66-.91-6.94h0Z"/>
          <path class="cls-13" d="M484.92,562.72c-1.76-1.46-2.71-2.16-4.92-2.87-1.19-.39-2.5-.56-3.75-.49-1.18,.07-2.49,.19-3.62,.62-.89,.34-1.83,.7-2.66,1.15s-1.76,1.26-2.44,1.81c-3.8,3.05-5.51,8.98-3.79,13.56,.83,2.22,1.43,3.2,2.93,5.02,.82,.99,1.93,1.78,2.96,2.51,1.49,1.04,3.3,1.78,5.09,2.1,2.63,.46,5.28,.6,7.85-.3,1.18-.41,2.53-.94,3.6-1.67,1.99-1.36,3-2.41,4.4-4.34,2.03-2.8,2.48-6.52,1.77-9.82s-2.93-5.96-5.64-7.7c-.23-.15-.46-.28-.71-.39-.85-.39-1.74-.83-2.66-1.07-1.98-.51-4.21-.53-6.17,.06-3.83,1.15-6.75,4.19-7.87,8.01-.27,.91-.33,1.93-.42,2.87-.03,.28-.03,.54-.01,.82,.16,2.22,.5,3.76,1.57,5.72,.57,1.05,1.33,2.04,2.22,2.84,.71,.62,1.51,1.3,2.38,1.75s1.89,.92,2.86,1.17,2.11,.37,3.14,.44c.26,.02,.51,0,.77-.02,2.41-.2,3.87-.62,6.04-1.65,1.15-.55,2.21-1.41,3.11-2.27,.48-.46,.87-1.03,1.26-1.55,.47-.61,.92-1.16,1.26-1.84,1.3-2.58,2.14-5.58,1.85-8.49-.14-1.39-.25-2.94-.75-4.28-.83-2.21-1.6-3.64-3.17-5.43-1.35-1.54-3.34-2.63-5.28-3.24s-4.16-.56-6.2-.11-3.76,1.5-5.24,2.86c-.72,.66-1.34,1.44-1.83,2.28-.25,.43-.4,.86-.6,1.35s-.48,.99-.58,1.53c-.38,1.2-.43,2.39-.16,3.59,.05,1.2,.41,2.31,1.07,3.35,1.09,1.87,3.23,3.65,5.38,4.14,2.3,.52,4.89,.41,6.94-.91,1.87-1.21,3.72-3.1,4.14-5.38,.03-.16,.07-.3,.13-.46l-.91,2.15c.07-.14,.14-.27,.24-.4l-1.41,1.82c.1-.12,.21-.23,.33-.33l-1.82,1.41c.18-.13,.35-.24,.55-.33l-2.15,.91c.26-.11,.52-.18,.8-.22l-2.39,.32c.28-.03,.56-.03,.84,0l-2.39-.32c.22,.04,.43,.1,.64,.18l-2.15-.91c.23,.11,.44,.24,.65,.39l-1.82-1.41c.26,.21,.48,.44,.69,.7l-1.41-1.82c.24,.33,.43,.67,.59,1.04l-.91-2.15c.23,.57,.38,1.15,.47,1.75l-.32-2.39c.09,.73,.1,1.46,.02,2.19l.32-2.39c-.09,.65-.26,1.28-.51,1.89l.91-2.15c-.18,.4-.39,.77-.65,1.12l1.41-1.82c-.26,.33-.53,.62-.85,.89l1.82-1.41c-.37,.28-.75,.5-1.17,.69l2.15-.91c-.37,.14-.73,.25-1.12,.32l2.39-.32c-.45,.06-.88,.07-1.34,0l2.39,.32c-.31-.06-.61-.14-.91-.26l2.15,.91c-.23-.11-.45-.23-.66-.38l1.82,1.41c-.22-.17-.41-.36-.58-.58l1.41,1.82c-.16-.23-.29-.46-.4-.71l.91,2.15c-.1-.26-.17-.52-.22-.79l.32,2.39c-.04-.33-.04-.65,0-.98l-.32,2.39c.04-.27,.11-.52,.2-.77l-.91,2.15c.11-.25,.24-.46,.4-.68l-1.41,1.82c.11-.12,.21-.23,.34-.34l-1.82,1.41c.18-.14,.37-.25,.58-.35l-2.15,.91c.23-.09,.44-.14,.68-.18l-2.39,.32c.24-.02,.46-.01,.7,.02l-2.39-.32c.24,.04,.46,.11,.68,.19l-2.15-.91c.28,.12,.54,.27,.79,.45l-1.82-1.41c.29,.23,.55,.48,.78,.78l-1.41-1.82c.18,.25,.33,.51,.45,.8l-.91-2.15c.09,.23,.15,.46,.2,.7l-.32-2.39c.04,.32,.03,.62,0,.94l.32-2.39c-.06,.33-.14,.63-.26,.94l.91-2.15c-.16,.36-.36,.69-.6,1.01l1.41-1.82c-.3,.37-.63,.69-1,.99l1.82-1.41c-.45,.33-.92,.6-1.42,.81l2.15-.91c-.49,.19-.99,.33-1.52,.4l2.39-.32c-.55,.06-1.1,.05-1.65-.01l2.39,.32c-.61-.09-1.2-.25-1.77-.49l2.15,.91c-.5-.22-.97-.49-1.41-.82l1.82,1.41c-.37-.3-.7-.62-1-.99l1.41,1.82c-.24-.33-.45-.67-.61-1.05l.91,2.15c-.13-.33-.22-.66-.28-1.01l.32,2.39c-.04-.33-.05-.65-.01-.98l-.32,2.39c.05-.32,.14-.62,.26-.92l-.91,2.15c.16-.35,.35-.66,.58-.97l-1.41,1.82c.28-.34,.59-.64,.94-.92l-1.82,1.41c.31-.23,.64-.42,.99-.58l-2.15,.91c.4-.17,.8-.28,1.22-.34l-2.39,.32c.31-.03,.61-.03,.92,0l-2.39-.32c.26,.04,.49,.11,.74,.2l-2.15-.91c.24,.11,.46,.24,.68,.4l-1.82-1.41,.13,.1c.82,.88,1.78,1.5,2.9,1.86,1.07,.56,2.23,.82,3.47,.78,2.21,0,4.84-.98,6.36-2.64s2.74-3.97,2.64-6.36c-.1-2.25-.82-4.86-2.64-6.36h0Z"/>
          <path class="cls-13" d="M391.66,501.35c1.68-.24,3.4-1.42,4.63-2.55,.76-.71,1.38-1.56,1.91-2.45,.95-1.61,1.3-3.4,1.41-5.24,.01-.21,0-.4-.02-.6-.08-.86-.15-1.85-.38-2.69-.78-2.85-2.71-5.26-5.24-6.76-2.12-1.25-4.49-1.7-6.91-1.83-2.76-.14-5.67,.25-8.37,.7-1.02,.17-2.01,.43-2.97,.82-1.08,.43-2.21,.85-3.22,1.44-1.06,.62-2.05,1.46-2.98,2.22l-1.41,1.82c-.66,1.03-1.01,2.15-1.07,3.35-.21,.8-.21,1.6,0,2.39,.05,1.2,.41,2.31,1.07,3.35,.85,1.12,1.68,2.35,2.7,3.35,1.66,1.62,3.27,2.5,5.38,3.33,3.95,1.54,8.66,.15,11.59-2.76,.7-.69,1.33-1.49,1.81-2.35,.78-1.38,1.09-2.46,1.29-3.93,.22-1.61,.32-2.3-.16-4.1-.46-1.71-1.34-3.17-2.53-4.45-.69-.75-1.53-1.37-2.41-1.89-1.53-.89-2.53-1.07-4.13-1.28-1.34-.18-1.64-.17-2.98,0-.71,.1-1.24,.13-1.87,.35-2.94,1.01-5.75,3.07-7.06,5.99-.97,2.18-1.39,3.31-1.51,5.76-.06,1.25,.08,2.58,.48,3.75,.63,1.89,1.49,3.61,2.94,5.02,1.55,1.5,3.15,2.44,5.19,3.1,2.43,.79,5.47,.76,7.88-.09,3.27-1.16,6.29-3.22,7.94-6.37,1.21-2.31,1.82-4.82,1-7.43-.54-1.73-1.4-3.32-2.69-4.61-1.94-1.95-5.09-3.49-7.91-3.18-1.24-.05-2.39,.21-3.47,.78-1.12,.36-2.08,.98-2.9,1.86-1.56,1.56-2.74,4.12-2.64,6.36s.87,4.74,2.64,6.36c1.65,1.51,4.04,2.89,6.36,2.64,.2-.02,.36-.02,.57,0l-2.39-.32c.12,.02,.25,.06,.36,.11l-2.15-.91c.18,.09,.32,.18,.48,.3l-1.82-1.41c.1,.08,.18,.17,.26,.27l-1.41-1.82c.08,.1,.14,.21,.19,.32l-.91-2.15c.05,.11,.09,.23,.11,.36v-4.79l-.06,.16,.91-2.15c-.14,.31-.32,.59-.52,.86l1.41-1.82c-.25,.31-.53,.58-.85,.83l1.82-1.41c-.33,.24-.66,.43-1.03,.6l2.15-.91c-.42,.18-.85,.3-1.3,.38l2.39-.32c-.39,.05-.77,.06-1.16,.02l2.39,.32c-.33-.05-.64-.12-.95-.24l2.15,.91c-.31-.13-.59-.29-.85-.49l1.82,1.41c-.16-.13-.3-.27-.44-.43l1.41,1.82c-.15-.19-.27-.39-.38-.61l.91,2.15c-.11-.27-.19-.54-.24-.83l.32,2.39c-.04-.34-.04-.68,0-1.02l-.32,2.39c.05-.35,.14-.67,.26-1l-.91,2.15c.13-.32,.3-.61,.5-.89l-1.41,1.82c.18-.23,.37-.43,.59-.61l-1.82,1.41c.19-.14,.38-.26,.59-.36l-2.15,.91c.22-.09,.44-.15,.67-.19l-2.39,.32c.2-.02,.39-.02,.59,0l-2.39-.32c.21,.03,.4,.07,.6,.14l-2.15-.91c.2,.08,.35,.17,.53,.29l-1.82-1.41c.1,.08,.18,.17,.25,.26l-1.41-1.82c.06,.08,.11,.17,.15,.27l-.91-2.15c.04,.09,.06,.19,.08,.28l-.32-2.39c.01,.16,0,.29-.01,.44l.32-2.39c-.02,.1-.05,.2-.08,.29l.91-2.15c-.09,.2-.19,.38-.32,.56l1.41-1.82c-.15,.18-.3,.33-.48,.48l1.82-1.41c-.19,.14-.38,.25-.6,.34l2.15-.91c-.17,.06-.32,.1-.49,.14l2.39-.32c-.18,.02-.33,.02-.51,.01l2.39,.32c-.34-.05-.66-.14-.97-.28l2.15,.91c-.31-.15-.59-.33-.86-.53l1.82,1.41c-.6-.49-1.11-1.07-1.59-1.67l1.41,1.82c-.09-.11-.17-.22-.25-.33l-1.41,10.91,.17-.14-1.82,1.41c.64-.49,1.32-.88,2.06-1.2l-2.15,.91c1.17-.48,2.39-.75,3.64-.92l-2.39,.32c1.93-.25,4-.44,5.94-.22l-2.39-.32c.48,.07,.93,.18,1.38,.36l-2.15-.91c.25,.12,.47,.25,.69,.41l-1.82-1.41c.14,.11,.25,.22,.36,.35l-1.41-1.82c.12,.16,.22,.33,.3,.52l-.91-2.15c.07,.19,.12,.38,.16,.59l-.32-2.39c.03,.25,.03,.5,0,.75l.32-2.39c-.04,.19-.09,.37-.16,.55l.91-2.15c-.06,.13-.13,.24-.21,.35l1.41-1.82c-.09,.11-.18,.19-.29,.28l1.82-1.41c-.07,.05-.15,.1-.24,.13l2.15-.91c-.14,.05-.27,.08-.42,.11-1.17,.28-2.19,.82-3.06,1.61-.98,.63-1.75,1.48-2.32,2.53-1.13,1.93-1.61,4.77-.91,6.94s2.05,4.28,4.14,5.38l2.15,.91c1.6,.43,3.19,.43,4.79,0h0Z"/>
          <path class="cls-13" d="M636.26,517.67c-.21-2.42-.51-3.87-1.67-6.03-.48-.9-1.2-1.71-1.84-2.47-.21-.26-.44-.48-.7-.7-1.86-1.54-3.03-2.29-5.36-3.07-.99-.33-2.21-.39-3.16-.5-.33-.04-.66-.04-.99,0-1.24-.05-2.39,.21-3.47,.78-1.12,.36-2.08,.98-2.9,1.86-1.55,1.68-2.81,4-2.64,6.36,.09,1.24,.19,2.57,.61,3.77s.89,2.49,1.61,3.56c.67,1,1.41,2.07,2.32,2.88,1.73,1.54,2.91,2.23,5.06,3.01,2.9,1.05,6.71,.53,9.26-1.18,1.55-1.05,2.91-2.23,3.83-3.91,1.01-1.86,1.42-3.47,1.5-5.58,.08-2.23-.7-5-2-6.82s-2.08-2.67-4.01-4c-1.01-.7-2.23-1.21-3.44-1.45-2.71-.54-5.55-.59-8.17,.45-1.27,.51-2.57,1.01-3.73,1.75s-2.3,1.63-3.36,2.54c-3.81,3.3-5.08,9.2-2.46,13.6,1.43,2.4,3.66,4.03,6.31,4.84,3.33,1.02,7.26-.08,9.66-2.57,.88-.82,1.5-1.78,1.86-2.9,.56-1.07,.82-2.23,.78-3.47,.05-1.24-.21-2.39-.78-3.47-.36-1.12-.98-2.08-1.86-2.9-1.72-1.57-3.97-2.74-6.36-2.64l-2.39,.32c-1.52,.43-2.85,1.2-3.97,2.31-.05,.05-.1,.1-.15,.14l1.82-1.41c-.05,.04-.11,.07-.17,.09l2.15-.91c-.06,.02-.12,.04-.19,.05l2.39-.32c-.1,0-.19,0-.29,0l2.39,.32c-.1-.02-.2-.05-.3-.09l2.15,.91c-.13-.06-.25-.14-.37-.22l1.82,1.41c-.09-.07-.16-.15-.23-.23l1.41,1.82c-.09-.12-.16-.24-.22-.37l.91,2.15c-.04-.11-.06-.2-.08-.31l.32,2.39c0-.14,0-.26,.02-.4l-.32,2.39c.03-.14,.07-.27,.12-.41l-.91,2.15c.1-.23,.22-.43,.36-.62l-1.41,1.82c.35-.44,.77-.8,1.21-1.14l-1.82,1.41c.82-.63,1.69-1.18,2.65-1.59l-2.15,.91c.54-.22,1.09-.39,1.67-.48l-2.39,.32c.47-.06,.93-.07,1.4-.02l-2.39-.32c.36,.05,.7,.13,1.03,.27l-2.15-.91c.23,.11,.45,.24,.66,.39l-1.82-1.41c.26,.21,.49,.44,.69,.7l-1.41-1.82c.2,.27,.36,.55,.49,.85l-.91-2.15c.12,.3,.21,.6,.26,.92l-.32-2.39c.03,.27,.03,.54,0,.81l.32-2.39c-.03,.2-.08,.38-.16,.57l.91-2.15c-.07,.15-.15,.29-.24,.43l1.41-1.82c-.13,.16-.27,.31-.44,.43l1.82-1.41c-.16,.11-.33,.21-.51,.29l2.15-.91c-.18,.07-.35,.12-.54,.15l2.39-.32c-.22,.03-.43,.03-.64,0l2.39,.32c-.22-.04-.43-.09-.63-.17l2.15,.91c-.29-.12-.55-.28-.8-.46l1.82,1.41c-.37-.28-.68-.61-.97-.98l1.41,1.82c-.32-.42-.58-.88-.79-1.36l.91,2.15c-.18-.44-.31-.9-.39-1.37l.32,2.39c-.02-.12-.03-.25-.04-.37l-9,9c.36-.04,.7-.04,1.06,0l-2.39-.32c.35,.06,.68,.15,1.01,.29l-2.15-.91c.37,.16,.71,.36,1.03,.6l-1.82-1.41c.31,.25,.59,.53,.83,.84l-1.41-1.82c.21,.28,.38,.58,.52,.9l-.91-2.15c.11,.29,.19,.57,.24,.88l-.32-2.39c.01,.09,.02,.17,.03,.26-.05,1.24,.21,2.39,.78,3.47,.36,1.12,.98,2.08,1.86,2.9,.82,.88,1.78,1.5,2.9,1.86,1.07,.56,2.23,.82,3.47,.78l2.39-.32c1.52-.43,2.85-1.2,3.97-2.31l1.41-1.82c.81-1.4,1.22-2.92,1.23-4.54h0Z"/>
          <path class="cls-13" d="M735.21,596.87c-.82-.86-1.82-1.55-2.76-2.25-.42-.31-.86-.59-1.33-.82-2.35-1.13-4.44-1.83-7.09-1.86-4.66-.06-9.33,2.5-11.57,6.64-1.05,1.93-1.82,4.28-1.71,6.51,.06,1.08,.14,2.24,.51,3.28,.74,2.07,1.35,3.19,2.85,4.83,.75,.82,1.69,1.54,2.68,2.06s2.16,1.07,3.3,1.28c1.02,.19,2.38,.45,3.52,.37,.96-.07,1.95-.22,2.9-.39,.25-.04,.5-.11,.74-.19,2.5-.84,4.56-2.09,6.46-3.93,1.37-1.33,2.48-2.95,3.6-4.49,.81-1.4,1.22-2.92,1.23-4.54,.05-1.24-.21-2.39-.78-3.47-.36-1.12-.98-2.08-1.86-2.9-1.12-1.12-2.45-1.89-3.97-2.31-.82-.3-1.64-.57-2.51-.72-2.3-.39-4.55-.63-6.83,.14-.77,.26-1.66,.65-2.39,1.01-.16,.08-.31,.16-.46,.26-.85,.56-1.73,1.16-2.42,1.92s-1.43,1.6-1.88,2.56c-.91,1.93-1.3,2.95-1.37,5.13-.16,4.76,3.33,9.19,7.91,10.35,1.89,.48,4.04,.56,5.92-.06,1.71-.56,3.03-1.26,4.31-2.54,1.39-1.39,1.93-2.59,2.58-4.41,.38-1.2,.43-2.39,.16-3.59-.05-1.2-.41-2.31-1.07-3.35-.57-1.05-1.34-1.89-2.32-2.53-.87-.8-1.89-1.33-3.06-1.61l-2.39-.32c-1.62,0-3.14,.41-4.54,1.23l-1.82,1.41c-1.12,1.12-1.89,2.45-2.31,3.97l-.03,.09,.91-2.15c-.04,.08-.08,.15-.13,.23l1.41-1.82c-.07,.09-.14,.16-.23,.23l1.82-1.41c-.07,.05-.14,.09-.22,.12l2.15-.91c-.14,.05-.27,.09-.41,.11l2.39-.32c-.15,.01-.3,.01-.45,0l2.39,.32c-.19-.03-.36-.07-.54-.14l2.15,.91c-.17-.07-.33-.16-.48-.27l1.82,1.41c-.09-.08-.18-.16-.26-.25l1.41,1.82c-.07-.1-.13-.2-.19-.3l.91,2.15c-.05-.13-.08-.25-.1-.39l.32,2.39c-.02-.17-.01-.32,0-.49l-.32,2.39c.03-.16,.07-.31,.13-.47l-.91,2.15c.08-.19,.19-.37,.31-.54l-1.41,1.82c.16-.21,.34-.39,.54-.55l-1.82,1.41c.25-.19,.51-.34,.8-.46l-2.15,.91c.26-.1,.52-.17,.8-.21l-2.39,.32c.46-.05,.91-.04,1.37,.02l-2.39-.32c.86,.14,1.69,.42,2.51,.72l-5.38-13.22c-.27,.37-.53,.73-.81,1.09l1.41-1.82c-.64,.83-1.34,1.62-2.17,2.27l1.82-1.41c-.42,.31-.86,.59-1.35,.8l2.15-.91c-.43,.18-.88,.29-1.34,.36l2.39-.32c-.42,.05-.84,.05-1.26,0l2.39,.32c-.37-.05-.72-.15-1.06-.29l2.15,.91c-.26-.12-.49-.26-.72-.43l1.82,1.41c-.19-.16-.36-.32-.51-.52l1.41,1.82c-.13-.18-.24-.37-.34-.57l.91,2.15c-.1-.24-.16-.47-.2-.72l.32,2.39c-.04-.29-.03-.57,0-.86l-.32,2.39c.05-.33,.14-.65,.26-.96l-.91,2.15c.15-.35,.34-.68,.57-.99l-1.41,1.82c.24-.3,.51-.57,.81-.81l-1.82,1.41c.25-.18,.51-.33,.79-.46l-2.15,.91c.37-.15,.75-.24,1.14-.3l-2.39,.32c.46-.05,.91-.04,1.37,.01l-2.39-.32c.56,.09,1.09,.24,1.6,.46l-2.15-.91c.56,.25,1.09,.56,1.58,.93l-1.82-1.41c.33,.26,.65,.54,.94,.85,.82,.88,1.78,1.5,2.9,1.86,1.07,.56,2.23,.82,3.47,.78,1.24,.05,2.39-.21,3.47-.78,1.12-.36,2.08-.98,2.9-1.86,1.57-1.72,2.74-3.97,2.64-6.36l-.32-2.39c-.43-1.52-1.2-2.85-2.31-3.97h0Z"/>
          <path class="cls-13" d="M369.27,661.01c11.8,8.59,27.32,11.18,41.62,10.28s28.02-4.82,41.65-8.92c6.53-1.96,13.05-3.94,19.67-5.57,3.23-.79,6.47-1.5,9.75-2.07,.9-.16,1.8-.31,2.7-.44,.34-.05,.68-.1,1.02-.15,1.3-.2-1.67,.19-.36,.05,1.7-.17,3.4-.37,5.11-.49,3.46-.23,6.94-.26,10.4-.05,1.63,.1,3.26,.27,4.88,.44,1.33,.14,.02-.28-.32-.05,.12-.08,.88,.13,1.03,.16,.92,.14,1.83,.3,2.75,.47,6.87,1.29,13.57,3.36,20.06,5.93,.76,.3,1.53,.59,2.28,.93-.07-.03-1.47-.64-.53-.22,.43,.19,.86,.38,1.29,.57,1.62,.72,3.22,1.46,4.82,2.23,3.2,1.55,6.36,3.19,9.48,4.9,6.14,3.37,12.13,7.01,18.06,10.74,11.83,7.44,23.49,15.19,35.89,21.68s26.16,12.22,40.32,14.41c15.33,2.38,30.66,1.12,45.6-3.06s28.5-10.58,41.91-17.58c3.3-1.72,6.6-3.47,9.94-5.11,1.56-.77,3.12-1.52,4.71-2.23,.34-.15,.68-.31,1.02-.46,.25-.11,1.7-.74,.63-.28-1,.43,.15-.06,.3-.12,.57-.23,1.15-.46,1.73-.68,3.48-1.34,7.04-2.45,10.68-3.25,.85-.19,1.71-.36,2.57-.51,.49-.09,.98-.17,1.48-.25l.37-.06c.52-.08,.49-.08-.08,0l-.45,.06c.37-.05,.74-.09,1.12-.13,.37-.04,.74-.08,1.12-.11,.99-.09,1.99-.16,2.99-.21,3.74-.18,7.49-.04,11.21,.37,4.7,.52,9.2-4.51,9-9-.24-5.32-3.97-8.45-9-9-7.89-.87-15.84-.36-23.63,1.18s-15.05,4.5-22.14,7.85c-6.61,3.12-12.99,6.69-19.52,9.95-3.2,1.59-6.42,3.13-9.68,4.59-.9,.4-1.81,.8-2.71,1.19-1.61,.7,1.04-.42-.58,.25-1.83,.75-3.66,1.48-5.5,2.18-6.76,2.54-13.69,4.66-20.77,6.1-1.67,.34-3.34,.64-5.03,.9-.34,.05-.74,.17-1.08,.16,1.78,.06,.78-.1,.23-.04-.97,.1-1.93,.22-2.9,.3-3.63,.33-7.29,.44-10.94,.32-1.67-.06-3.33-.16-4.99-.32-.81-.08-1.62-.18-2.43-.26-1.09-.12,.67,.09,.67,.09-.1,.1-1.48-.23-1.71-.26-3.41-.56-6.79-1.31-10.13-2.23s-6.41-1.94-9.54-3.11c-1.46-.54-3.18-1-4.53-1.79,1.81,1.07-.21-.1-.73-.33-.96-.42-1.91-.86-2.86-1.3-25.17-11.73-46.85-29.61-71.93-41.52-13.53-6.42-27.65-11.11-42.65-12.32-14.12-1.14-28.29,1.66-41.84,5.42s-25.99,8.2-39.38,10.74c-1.57,.3-3.14,.56-4.72,.8-.26,.04-.78,.02-1.01,.15,1.06-.57,1.31-.16,.36-.06s-1.81,.2-2.72,.28c-3.41,.31-6.84,.43-10.26,.31-1.58-.06-3.17-.16-4.74-.33-.27-.03-1.17-.24-1.35-.16,.05-.02,1.74,.28,.71,.08-.89-.17-1.79-.3-2.68-.47-1.55-.31-3.09-.69-4.61-1.13-.76-.22-1.51-.46-2.25-.71-.42-.15-.85-.3-1.27-.45-.26-.1-2.05-.82-.8-.29,1.07,.44-.97-.46-1.37-.66-.7-.35-1.39-.71-2.07-1.1-1.46-.82-2.86-1.74-4.22-2.73-3.82-2.78-10.2-.77-12.31,3.23-2.47,4.67-.85,9.35,3.23,12.31h0Z"/>
          <path class="cls-13" d="M732.68,745.35c.22-.86,.39-1.76,.35-2.65,0-.08-.3-2.33-.32-2.41,0-.02,0-.04-.01-.06s-.01-.04-.02-.06c-.05-.19-.83-2.02-.93-2.2-.21-.37-.44-.59-.75-.99-.15-.2-.49-.71-.78-1-.24-.24-1.59-1.28-1.88-1.46-.04-.03-.08-.05-.13-.07-1.62-.89-3.2-1.32-5.07-1.33-.05,0-.1,0-.15,0-.03,0-.07,0-.1,.01-.41,.04-2.02,.25-2.42,.33-.12,.02-.23,.05-.35,.09-.02,0-.05,.02-.07,.03-.33,.12-1.86,.77-2.17,.92-.05,.03-.11,.05-.16,.08-.04,.03-.08,.06-.12,.08-.16,.11-1.7,1.29-1.84,1.42-.02,.02-.05,.04-.07,.06s-.04,.05-.07,.07c-.1,.1-1.34,1.71-1.42,1.84-.03,.04-.05,.08-.08,.12-.01,.02-.02,.04-.03,.06-.05,.09-.88,2.06-.92,2.17-.02,.06-.04,.12-.05,.19-.08,.34-.35,2.6-.17,1.25,.11-.84-.16,.88-.16,1.25,0,.46,.12,1.01,.17,1.4,.04,.32,.09,.95,.19,1.38s.39,.99,.53,1.32c.21,.49,.36,.99,.65,1.43,.36,.53,1.06,1.57,1.71,2.16,.03,.03,.06,.05,.09,.08,.56,.48,1.32,1.05,1.91,1.48,.08,.05,.15,.11,.23,.16,.49,.3,1.08,.51,1.59,.72,.76,.32,1.46,.66,2.28,.79,1.6,.43,3.19,.43,4.79,0,1.52-.43,2.85-1.2,3.97-2.31,1.12-1.12,1.89-2.45,2.31-3.97,.43-1.6,.43-3.19,0-4.79-.17-.89-.59-1.73-1.06-2.5-.81-1.33-2.08-2.69-3.47-3.43-1.66-.89-3.36-1.44-5.27-1.39-1.79,.05-3.73,.48-5.24,1.48s-2.53,1.91-3.43,3.47c-1.07,1.84-1.08,2.78-1.32,4.86,0,1.62,.41,3.14,1.23,4.54,.8,1.35,1.88,2.43,3.23,3.23,.08,.04,.15,.08,.23,.12,.71,.35,1.58,.7,2.32,.98,.18,.07,.37,.12,.56,.16,1.04,.19,2.26,.46,3.37,.34,.84-.08,1.74-.2,2.57-.35,.08-.01,.17-.03,.25-.05,.18-.04,.36-.1,.53-.17,.79-.3,1.59-.64,2.36-.99,.08-.04,.16-.07,.23-.12,.16-.09,.32-.19,.48-.29,.74-.53,1.49-1.08,2.17-1.68,.14-.12,.27-.25,.39-.39,.54-.62,1.03-1.31,1.52-1.96,.06-.08,.12-.15,.17-.24,.1-.15,.19-.31,.26-.47,.39-.83,.79-1.67,1.06-2.55,.02-.08,.04-.16,.06-.24,.18-.85,.27-1.75,.36-2.6,.02-.17,.03-.33,.02-.5-.05-.97-.17-1.94-.39-2.88-.04-.15-.09-.3-.14-.44-.3-.76-.61-1.56-.98-2.3-.04-.08-.08-.15-.13-.23-.47-.76-1.07-1.45-1.63-2.14-.1-.13-.22-.25-.34-.36-.07-.06-.13-.12-.2-.17-.62-.5-1.3-1.05-1.95-1.51-.14-.1-.28-.19-.43-.27-.8-.43-1.68-.74-2.52-1.08-.16-.06-.32-.12-.48-.17s-.33-.09-.5-.11c-.93-.15-1.89-.31-2.83-.37-1.08-.06-2.31,.2-3.3,.37-.15,.03-.3,.06-.45,.11-.08,.03-.17,.06-.25,.09-.78,.3-1.58,.62-2.33,.99-.14,.07-.27,.15-.4,.23-.74,.52-1.5,1.05-2.16,1.68-.07,.06-.13,.13-.19,.2-.27,.3-.61,.78-.77,.99-.1,.13-.58,.68-.78,1.02-.46,.79-.88,1.68-1.06,2.58s-.41,1.91-.33,2.86c.2,2.16,.21,2.28,.9,3.93s.74,1.66,2.1,3.31c.06,.07,.12,.14,.18,.21,.02,.02,.05,.05,.08,.07,.03,.02,.05,.04,.08,.06l1.82,1.41c.07,.05,.15,.1,.23,.14,.04,.02,.08,.04,.12,.06,.57,.26,1.62,.75,2.21,.93,.46,.14,1.04,.17,1.46,.22s1,.2,1.47,.16c1.24,.05,2.39-.21,3.47-.78,1.12-.36,2.08-.98,2.9-1.86,.88-.82,1.5-1.78,1.86-2.9,.56-1.07,.82-2.23,.78-3.47l-.32-2.39c-.43-1.52-1.2-2.85-2.31-3.97l-1.82-1.41c-1.4-.81-2.92-1.22-4.54-1.23-.09,0-.18,0-.28,0l2.39,.32c-.11-.02-.22-.04-.33-.08l2.15,.91c-.13-.05-.24-.12-.35-.2l1.82,1.41c-.13-.1-.24-.21-.34-.34l1.41,1.82c-.1-.13-.17-.27-.24-.42l.91,2.15c-.06-.15-.1-.3-.13-.46l.32,2.39c-.02-.13-.02-.27,0-.4l-.32,2.39c.02-.13,.05-.26,.1-.38l-.91,2.15c.04-.08,.08-.16,.14-.23l-1.41,1.82c.14-.18,.31-.33,.48-.48l-1.82,1.41c.21-.16,.44-.29,.69-.39l-2.15,.91c.27-.11,.55-.18,.83-.22l-2.39,.32c.36-.05,.72-.04,1.08,0l-2.39-.32c.38,.05,.76,.16,1.12,.3l-2.15-.91c.31,.13,.6,.3,.87,.5l-1.82-1.41c.24,.19,.46,.4,.65,.65l-1.41-1.82c.14,.19,.26,.4,.36,.62l-.91-2.15c.09,.23,.16,.47,.19,.71l-.32-2.39c.03,.24,.03,.48,0,.72l.32-2.39c-.04,.26-.11,.51-.21,.75l.91-2.15c-.12,.29-.28,.56-.48,.81l1.41-1.82c-.22,.27-.46,.51-.73,.72l1.82-1.41c-.3,.23-.62,.41-.96,.56l2.15-.91c-.32,.13-.65,.22-.99,.27l2.39-.32c-.29,.04-.58,.04-.87,0l2.39,.32c-.27-.04-.52-.11-.77-.21l2.15,.91c-.11-.05-.22-.11-.33-.17,1.49,2.59,2.97,5.18,4.46,7.77v-.06c-.1,.8-.21,1.6-.31,2.39,.01-.06,.02-.11,.04-.16l-.91,2.15c.03-.07,.06-.12,.1-.18l-1.41,1.82c.05-.06,.09-.1,.15-.15l-1.82,1.41c.07-.06,.15-.1,.23-.14l-2.15,.91c.12-.05,.25-.08,.38-.1l-2.39,.32c.12-.01,.23-.01,.34,0l-2.39-.32c.11,.02,.22,.04,.33,.08l-2.15-.91c.08,.04,.16,.08,.23,.13l-1.82-1.41c.06,.04,.1,.09,.15,.15l-1.41-1.82c.04,.06,.08,.12,.11,.18l-.91-2.15c.02,.05,.03,.11,.04,.16,3.69-3.69,7.38-7.38,11.07-11.07-.41-.07-.81-.18-1.2-.34l2.15,.91c-.28-.12-.54-.27-.78-.45l1.82,1.41c-.16-.13-.31-.27-.43-.43l1.41,1.82c-.09-.12-.16-.25-.22-.38l.91,2.15c-.06-.14-.09-.28-.11-.43l.32,2.39c0-.09-.01-.17,0-.26l-.32,2.39c.01-.08,.03-.16,.06-.24l-.91,2.15c.03-.07,.07-.14,.12-.2l-1.41,1.82c.05-.06,.11-.12,.17-.17l-1.82,1.41c.09-.07,.19-.13,.3-.18l-2.15,.91c.14-.06,.29-.1,.45-.12l-2.39,.32c.15-.02,.3-.02,.45,0l-2.39-.32c.11,.02,.21,.04,.31,.08l-2.15-.91c.06,.03,.12,.06,.18,.1l-1.82-1.41s.08,.07,.11,.11l-1.41-1.82s.04,.06,.06,.1l-.91-2.15c.02,.05,.03,.1,.04,.15l-.32-2.39s0,.09,0,.13l.32-2.39c0,.05-.02,.1-.03,.15-.38,1.2-.43,2.39-.16,3.59,.05,1.2,.41,2.31,1.07,3.35,.57,1.05,1.34,1.89,2.32,2.53,.87,.8,1.89,1.33,3.06,1.61l2.39,.32c1.62,0,3.14-.41,4.54-1.23l1.82-1.41c1.12-1.12,1.89-2.45,2.31-3.97h0Z"/>
          <path class="cls-13" d="M489.17,710.05c-.51-.67-1.07-1.62-1.79-2.22-.65-.54-1.48-1.32-2.34-1.72-.47-.22-1.8-.89-2.67-1.07-.06-.01-.12-.02-.18-.03-.75-.12-1.7-.25-2.45-.33-.12-.01-.25-.02-.37-.02-.99,0-1.98,.19-2.95,.38-.23,.04-.44,.11-.66,.2-.53,.21-1.9,.67-2.63,1.17s-1.62,1.08-2.25,1.78c-1.27,1.42-2.44,3.1-2.82,5.01-.17,.85-.43,2.03-.33,3.02,.24,2.57,.36,2.83,1.39,5.15,.1,.22,.21,.42,.35,.62,.48,.66,1.16,1.72,1.9,2.35,.65,.54,1.36,1.1,2.05,1.58,.1,.07,.2,.13,.31,.19,.77,.4,1.6,.72,2.41,1.03,.13,.05,.27,.1,.41,.13,.98,.22,2.02,.43,3.03,.37,2.64-.15,4.95-.77,6.93-2.75,1.11-1.11,2.17-2.84,2.54-4.38,.5-2.1,.43-3.16,.03-5.25-.34-1.74-1.59-3.68-2.82-4.92s-3.21-2.5-4.99-2.87c-2.21-.46-3.05-.44-5.26,0-.96,.19-1.91,.6-2.72,1.15-.53,.35-1.38,1.04-1.87,1.45-.05,.04-.1,.08-.14,.13-.56,.55-1.52,1.93-1.57,2.01-.56,.8-.9,1.78-1.19,2.71-.63,1.99-.46,3.97-.05,5.97,.19,.94,.7,1.92,1.09,2.71,.43,.87,1.13,1.63,1.75,2.35,.67,.77,1.53,1.4,2.43,1.89,.8,.44,1.66,.77,2.52,1.07,.14,.05,.28,.09,.43,.12,1.03,.2,2.17,.45,3.25,.37,.08,0,.17-.02,.25-.03,.84-.1,1.72-.19,2.56-.35,.17-.03,.33-.07,.49-.12,1.02-.32,2.03-.73,2.96-1.27,.13-.08,.26-.16,.39-.25,.67-.48,1.38-.93,1.95-1.51,.88-.82,1.5-1.78,1.86-2.9,.56-1.07,.82-2.23,.78-3.47,.1-.9,.21-1.8,.31-2.7,.05-1.24-.21-2.39-.78-3.47-.36-1.12-.98-2.08-1.86-2.9-.82-.88-1.78-1.5-2.9-1.86-1.07-.56-2.23-.82-3.47-.78l-2.39,.32c-1.52,.43-2.85,1.2-3.97,2.31l-1.41,1.82c-.81,1.4-1.22,2.92-1.23,4.54-.1,.9-.21,1.8-.31,2.7l2.64-6.36-.07,.05,1.82-1.41c-.29,.22-.61,.4-.95,.54l2.15-.91c-.32,.13-.64,.22-.97,.27l2.39-.32c-.3,.04-.6,.04-.91,.01l2.39,.32c-.27-.04-.53-.11-.78-.21l2.15,.91c-.19-.09-.37-.19-.54-.32l1.82,1.41c-.14-.11-.26-.24-.37-.38l1.41,1.82c-.12-.16-.22-.33-.3-.51l.91,2.15c-.08-.21-.14-.42-.17-.64l.32,2.39c-.03-.22-.03-.43,0-.65l-.32,2.39c.03-.19,.08-.37,.15-.55l-.91,2.15c.06-.13,.13-.26,.22-.38l-1.41,1.82c.09-.12,.19-.22,.31-.31l-1.82,1.41c.11-.08,.21-.14,.33-.2l-2.15,.91c.12-.05,.23-.08,.35-.09l-2.39,.32c.12-.01,.24,0,.36,0l-2.39-.32c.14,.02,.28,.06,.41,.11l-2.15-.91c.17,.07,.33,.17,.48,.28l-1.82-1.41c.13,.1,.24,.22,.35,.35l-1.41-1.82c.1,.13,.18,.26,.25,.41l-.91-2.15c.05,.12,.09,.25,.1,.38l-.32-2.39c0,.09,0,.18,0,.28l.32-2.39c-.01,.09-.04,.18-.07,.27l.91-2.15c-.04,.09-.09,.17-.15,.25l1.41-1.82-.04,.05,3.97-2.31c-.14,.04-.28,.08-.42,.1l2.39-.32c-.19,.02-.38,.02-.57,0l2.39,.32c-.24-.03-.46-.1-.68-.19l2.15,.91c-.22-.1-.43-.22-.62-.36l1.82,1.41c-.21-.16-.4-.35-.57-.56l1.41,1.82c-.16-.21-.29-.43-.4-.67l.91,2.15c-.08-.2-.13-.4-.16-.61l.32,2.39c-.02-.19-.02-.37,0-.56l-.32,2.39c.03-.18,.08-.35,.15-.52l-.91,2.15c.07-.17,.17-.32,.28-.47l-1.41,1.82c.13-.16,.27-.3,.43-.42l-1.82,1.41c.18-.14,.38-.25,.58-.34l-2.15,.91c.27-.11,.55-.19,.84-.23l-2.39,.32c.27-.03,.54-.03,.81,0l-2.39-.32c.24,.04,.48,.1,.71,.19l-2.15-.91c.17,.07,.32,.16,.47,.27l-1.82-1.41c.15,.11,.28,.24,.39,.38l-1.41-1.82,.04,.05c.57,1.05,1.34,1.89,2.32,2.53,.87,.8,1.89,1.33,3.06,1.61,1.2,.38,2.39,.43,3.59,.16,1.2-.05,2.31-.41,3.35-1.07l1.82-1.41c1.12-1.12,1.89-2.45,2.31-3.97l.32-2.39c0-1.62-.41-3.14-1.23-4.54h0Z"/>
        </g>
      </g>
      <g id="_頭部-2" data-name="頭部">
        <g id="_臉部-2" data-name="臉部">
          <g id="_臉" data-name="臉">
            <path class="cls-12" d="M430.07,227.17c-9.86,.13-20.07,.35-28.98,4.5-8.91,4.16-16.17,13.43-14.6,22.98,.87,5.29,4.25,9.87,8.13,13.64,11.69,11.33,29.01,16.78,45.25,14.24,.69,14.48,11.02,26.55,21.21,37.02,13.85,14.24,29.2,28.23,48.41,33.92,24.5,7.25,51.59-.5,72.81-14.61,21.22-14.11,37.68-33.97,53.8-53.54,6.51-7.9,13.18-19.31,6.81-27.3-2.74-3.44-7.22-5.02-10.64-7.82-10.47-8.56-8.06-24.67-11.97-37.49-4.01-13.14-15.09-23.08-27.01-30.22-27.69-16.6-62.5-21.3-93.77-12.68-31.28,8.62-58.56,30.44-73.5,58.79"/>
            <path class="cls-12" d="M430.07,225.67c-9.3,.13-18.97,.28-27.72,3.83-7.32,2.97-13.8,8.63-16.48,16.22-2.88,8.18,.58,16.11,6.22,22.14s12.85,10.51,20.56,13.35c8.81,3.24,18.34,4.18,27.61,2.77l-1.9-1.45c.52,9.68,5.08,18.35,10.89,25.91s13.06,14.8,20.21,21.5,14.81,12.99,23.32,17.89,17.77,8.18,27.51,9.37c19.76,2.42,39.93-3.55,56.93-13.43,17.66-10.26,32.29-24.99,45.59-40.31,3.42-3.93,6.76-7.93,10.09-11.94,3.11-3.76,6.35-7.45,8.97-11.58,4.63-7.27,8.12-17.58,.78-24.41-3.26-3.03-7.61-4.56-10.76-7.72-2.78-2.79-4.44-6.4-5.5-10.15-2.26-8.08-2.14-16.62-4.45-24.69-5.24-18.3-22.85-30.28-39.28-37.78-17.98-8.21-37.96-11.99-57.7-10.99-19.01,.97-37.58,6.45-54.05,15.99-15.57,9.01-29.16,21.47-39.36,36.3-2.5,3.64-4.78,7.42-6.85,11.32-.9,1.71,1.69,3.22,2.59,1.51,8.2-15.49,20-28.99,34.13-39.35s31.13-17.91,48.76-21.08c19.01-3.42,38.86-2.06,57.29,3.68,9.13,2.85,17.92,6.79,26.07,11.81,7.58,4.67,14.8,10.45,19.92,17.82,2.49,3.59,4.44,7.52,5.63,11.73,1.1,3.93,1.64,7.98,2.18,12.02,1.02,7.72,1.98,16.01,7,22.31,2.74,3.44,6.54,5.31,10.11,7.72s5.8,5.89,5.56,10.34-2.44,8.62-4.78,12.27c-2.58,4.03-5.77,7.63-8.82,11.31-12.68,15.29-25.84,30.52-41.73,42.6s-33.65,20.32-53.1,21.94c-9.49,.79-19.05-.16-28.09-3.21s-17.31-8.06-24.8-13.89c-7.56-5.88-14.43-12.59-21.08-19.47s-12.88-13.87-16.85-22.41c-1.89-4.07-3.09-8.46-3.34-12.95-.06-1.06-.91-1.6-1.9-1.45-14.98,2.28-31-2.39-42.32-12.49-5.53-4.93-10.68-11.75-9.07-19.6,1.45-7.08,7.08-12.8,13.43-15.86,8.81-4.26,18.99-4.33,28.57-4.46,1.93-.03,1.93-3.03,0-3h0Z"/>
          </g>
          <g id="_頭髮-2" data-name="頭髮">
            <path class="cls-20" d="M425.1,148.45c-1.38,7.7-4.63,11.18-7.15,16.32-7.67,15.6-2.5,33.88,1.23,47.09,1.79,6.34,3.89,11.38,5.44,14.73,6.45-1.36,13.16-3.16,20.06-5.51,39.88-13.56,66.89-38.96,83.08-58.08,8.46,4.15,16.99,8.46,25.59,12.94,25.9,13.5,50.24,27.39,73.05,41.41,2.13-23.01-.63-41.47-3.32-53.42-2.6-11.57-6.36-25.42-16.46-40.76-4.87-7.4-9.97-12.08-11.59-13.64-14.83-14.25-31.53-20.3-41.5-22.89-18.56-4.82-34.31-2.98-42.97-1.31,.41-11.17-1.47-20.08-3.2-25.96-2.47-8.4-4.82-16.36-11.97-23.24-7.3-7.02-15.59-9.05-21.74-10.57-4.76-1.17-22.42-5.24-41.57,3.61-2.41,1.11-13.92,6.63-23.49,19.24-3.1,4.09-16.44,21.68-12.75,43.75,.73,4.34,2.73,16.31,12.04,25.72,7.01,7.08,14,8.51,16.86,16.9,1.83,5.4,.9,10.58,.36,13.63Z"/>
          </g>
        </g>
        <g id="_右眼" data-name="右眼">
          <path class="cls-20" d="M496,251.34c-1.83-1.07-4.03-.6-5.61,.69s-2.17,3.25-2.46,5.13c-.26,1.64-.46,3.51,.49,4.99,1.18,1.84,3.63,1.87,5.29,.67,2.93-2.13,2.95-6.68,.08-8.85-3.11-2.34-7.55-1.22-9.6,1.93s-1.84,8.9,2.46,9.78c3.77,.77,7.38-2.54,9.28-5.43,1.21-1.83,1.86-4.1,.93-6.2-.75-1.69-2.37-2.77-4.09-3.31-3.32-1.05-7.16-.02-9.69,2.32s-3.3,6.38-1.2,9.38c2.28,3.26,6.43,4.33,10,2.59,3.31-1.61,5.2-5.3,4.41-8.91-.73-3.3-3.61-6.22-6.96-6.8-7.14-1.24-12.85,7.81-8.06,13.5,2.08,2.47,5.59,3.49,8.72,2.92,3.59-.66,6.23-3.94,6.39-7.54,.17-3.81-2.93-7.05-6.68-7.33s-7.03,3.04-6.74,6.72c.31,3.95,5.06,7.13,8.86,6.26,1.86-.43,3.33-2.16,3.29-4.1-.04-1.83-1.58-3.22-3.4-3.03s-3.16,1.61-2.82,3.47c.2,1.08,1.8,1.48,2.51,.66,1.66-1.92,.81-5.23-1.79-5.82-2.88-.64-5.01,2.65-3.79,5.12,.37,.74,1.38,.91,2.05,.54,.9-.5,1.79-1.24,2.08-2.27,.31-1.09-.09-2.27-1.15-2.75-1.71-.77-4.23,.88-2.99,2.8,.56,.87,1.59,.93,2.36,.3,1.22-1,1.91-2.58,1.92-4.15,0-.79-.16-1.61-.52-2.31-.37-.74-1.22-1.14-1.98-1.36-2.64-.78-5.64,.73-6.99,3.03-1.72,2.92-.55,6.53,1.51,8.93,1.04,1.2,2.57,2.49,4.24,2.53,1.79,.05,3.19-1.26,4.18-2.61,1.78-2.42,2.51-5.86,1.45-8.73-1-2.72-3.3-4.42-6.16-4.72-2.51-.27-5.33,.77-6.56,3.09-1.56,2.95-.6,6.58,1.41,9.04,1.87,2.29,4.9,3.74,7.88,3.38s5.67-2.27,6.91-4.97c1.31-2.83,.79-6-1.37-8.26-1.92-2.02-5-3.1-7.72-2.26-5.34,1.64-6.81,9.73-1.72,12.6,5.56,3.14,11.97-2.65,11.61-8.37s-6.63-8.76-11.64-6.87c-2.48,.94-4.38,2.99-4.9,5.62-.5,2.5,.04,5.2,1.59,7.24,.78,1.03,1.76,1.89,2.95,2.42,.74,.33,1.61,.21,2.05-.54,.38-.64,.2-1.72-.54-2.05-2.89-1.3-4.12-5.09-2.64-7.77,1.59-2.88,5.64-3.09,8.19-1.36,1.27,.86,1.99,2.32,1.96,3.86s-.79,3.14-1.97,4.26c-1.24,1.18-3.25,1.85-4.92,1.08-.79-.36-1.37-1-1.65-1.7-.23-.57-.31-1.37-.24-1.95,.18-1.48,1.03-2.88,2.33-3.46,1.5-.68,3.38-.16,4.64,.88,1.34,1.11,2.07,2.77,1.62,4.48s-1.94,3.28-3.66,3.87c-3.7,1.28-7.81-1.93-7.91-5.75-.03-.92,.21-1.92,.78-2.51,.49-.51,1.04-.78,1.8-.95,1.33-.3,3.03,.04,4.05,1.03,1.33,1.29,1.56,3.34,1.14,5.07-.25,1-.69,1.97-1.33,2.78-.49,.62-1.17,1.39-1.99,.96-1.75-.92-3.19-3.13-3.18-5.12,.01-1.66,1.17-2.92,2.74-3.33,.69-.17,1.3-.06,1.92,.35l-.54-.54c.53,1.09,.03,2.3-.84,3.02l2.36,.3c.45,.69-.08,1.5-.67,1.5,.18,0,.18,0-.01-.02-.41-.15-.62-.39-.64-.73,.02-.09,0-.11-.04-.08-.05,.03-.09,.07-.13,.11-.16,.05-.39,.27-.54,.35l2.05,.54c-.1-.2,.33-.73,.57-.68,.12,.02-.05-.11,.13,.09-.12-.14,.21,.39,.14,.22,.07,.18,.07,.17,.05,.45,.01-.17-.17,.17-.02,0l2.51,.66c.03,.14-.1,.33-.09,.42-.05-.24,.2-.06,.04-.04,.44-.06-.12,0,.14-.06-.05,.01,.24-.03,.25-.03,.21-.04-.04,.13-.07-.06,.04,.21,.09,.37-.11,.72-.23,.38-.6,.58-1.04,.64-2.01,.27-4.97-1.64-4.96-3.79,0-1.95,1.85-3.55,3.78-3.33,2.24,.25,3.89,2.35,3.64,4.57s-1.86,3.89-3.91,4.36c-1.72,.39-3.81-.1-5.23-1.25-1.56-1.26-2.11-3.14-1.56-5.05s2.06-3.57,3.96-4.12c4.05-1.17,8.4,3.74,6.35,7.58-1.03,1.94-3.32,3.32-5.55,2.87-2.08-.43-3.9-2.34-3.83-4.52,.12-4.22,6.63-6.41,9.76-3.97,2.23,1.73-.01,4.64-1.42,6.1-1.05,1.09-3.94,3.46-5.39,1.9-.74-.8-.74-2.24-.51-3.23,.25-1.07,.81-2.1,1.72-2.73,1.49-1.04,4.29-.9,5.03,1.03,.26,.68,.18,1.58-.21,2.26-.18,.32-.41,.59-.72,.78-.19,.11-.43,.26-.68,.24-.11,0-.23-.09-.22-.08-.4-.38-.31-1.66-.21-2.39,.17-1.22,.41-2.65,1.25-3.6,.59-.67,1.63-1.15,2.46-.67,1.67,.97,3.18-1.62,1.51-2.59h0Z"/>
        </g>
        <g id="_左眼" data-name="左眼">
          <path class="cls-20" d="M575.6,240.82c-3.16,.47-4.13,4-4.16,6.73-.02,1.49,.03,3.51,1.49,4.35,1.81,1.05,3.92-.83,4.94-2.2,2.12-2.88,1.15-7.46-2.54-8.48s-7.03,2.48-7.98,5.75c-.9,3.1-.2,6.59,1.93,9.02,1.24,1.4,3.15,2.4,5,1.67,1.68-.66,3.01-2.5,4.05-3.91s1.88-3.17,1.86-5c-.02-1.69-.72-3.28-1.82-4.55-2.32-2.68-6.06-3.25-9.19-1.73s-5,4.9-4.68,8.31c.16,1.74,.77,3.43,1.8,4.84s2.63,3.03,4.53,3.06,3.45-1.57,4.75-2.76,2.43-2.49,3.12-4.08c1.47-3.37,.18-6.97-2.76-9.04s-6.67-1.6-9.37,.51-4.09,5.99-2.87,9.39c1.11,3.1,3.92,5.03,7.21,5.02,2.9-.01,5.86-1.53,7.06-4.26s.47-6.09-1.53-8.33c-2.36-2.65-6.55-3.24-9.22-.72s-3.18,7.21-.02,9.54c2.68,1.97,6.8,.94,7.37-2.59,.26-1.64-.32-3.11-1.67-4.08-1.07-.76-2.59,.5-2.2,1.69,.74,2.3,2.43,3.99,4.68,4.82,.75,.28,1.66-.32,1.85-1.05,.59-2.28,.61-4.85-.63-6.93-1.12-1.87-3.25-3.23-5.47-3.12-3.68,.18-5.72,4.36-4.41,7.6,1.57,3.88,6.6,3.87,9.29,1.19,3.24-3.22,1.35-8.38-2.71-9.8-4.58-1.6-9.19,3.19-7.78,7.72l2.74-1.16c-1.26-1.76-.48-5.12,1.91-5.37,1.03-.11,1.94,.63,2.45,1.62s.51,1.9-.25,2.61l1.82-.23c-1.4-.69-3.3-1.5-3.89-3.07-.38-1.01-.05-2.4,1.14-2.23s2.19,1.43,2.42,2.61c.42,2.17-.32,4.48-.38,6.66-.05,1.93,2.95,1.93,3,0,.08-2.94,1.15-6.1-.23-8.9-.99-2-3.27-3.63-5.56-3.33-2.7,.35-3.95,3.09-3.4,5.56,.6,2.68,3.12,4.17,5.39,5.29,.62,.31,1.3,.25,1.82-.23,3.42-3.19,.31-9.41-4.13-9.35-4.7,.06-7.32,6.22-4.68,9.89,.93,1.29,3.28,.58,2.74-1.16-.61-1.96,.99-4.39,3.15-4.24s4.02,2.63,2.71,4.54c-.56,.81-1.53,1.39-2.51,1.51-.74,.09-1.6-.21-1.97-.69-.51-.67-.57-1.55-.38-2.3,.18-.71,.6-1.36,1.13-1.59,1.22-.53,2.64,.29,3.33,1.29,.98,1.39,.86,3.25,.46,4.82l1.85-1.05c-1.23-.46-2.19-1.49-2.58-2.73l-2.2,1.69c.35,.25,.33,.93,.11,1.41-.27,.58-.89,.8-1.57,.68-2.27-.41-2.25-3.07-1.25-4.64,1.17-1.84,3.45-1.98,5.08-.63,1.28,1.06,2.02,2.86,1.8,4.48-.46,3.46-5.33,4.66-7.77,2.49-3.47-3.09-.64-9.03,3.71-9.18,1.93-.07,3.8,1.16,4.56,2.93,.91,2.13-.38,4.18-1.84,5.68-.8,.82-1.69,1.67-2.65,2.31-.47,.31-.71,.36-1.19,.08-.51-.29-.94-.75-1.32-1.19-1.37-1.62-1.98-3.95-1.31-6,.62-1.88,2.47-3.43,4.44-3.67s3.93,.95,4.71,2.75c.95,2.2-.63,4.33-2.03,5.91-.57,.64-1.38,1.97-2.37,1.51-.89-.42-1.56-1.43-1.96-2.29-.78-1.7-.78-3.81-.02-5.52,.69-1.53,2.93-4,4.7-2.5,.67,.57,.94,1.46,.76,2.3-.11,.49-.35,.95-.66,1.34-.17,.21-.37,.4-.57,.57-.08,.06-.71,.4-.72,.48,0,0,.53,.22,.54,.2,.04-.05-.07,.02-.01-.11,.04-.08-.06-.38-.07-.49-.04-.51-.05-1.03-.04-1.55,.03-.83,.15-1.74,.51-2.47s.7-.94,1.44-1.05c.8-.12,1.24-1.13,1.05-1.85-.24-.86-1.04-1.17-1.85-1.05h0Z"/>
        </g>
        <g id="_鼻子" data-name="鼻子">
          <path class="cls-20" d="M524.39,278.6c-1.19,3.47,1.14,7.22,4.32,8.65,3.5,1.57,7.41,.35,9.95-2.39,1.41-1.52,2.41-3.42,2.85-5.45,.17-.79-.23-1.62-1.05-1.85-.75-.21-1.68,.25-1.85,1.05-.65,3.03-3.07,6.22-6.4,6.38-1.5,.07-2.93-.61-3.97-1.72s-1.44-2.49-.97-3.86c.63-1.83-2.27-2.62-2.89-.8h0Z"/>
        </g>
        <g id="_嘴巴" data-name="嘴巴">
          <path class="cls-20" d="M512.83,306.23c2.56,4.75,7.41,8,12.75,8.65s11.14-1.61,14.7-5.78c1.25-1.46-.87-3.59-2.12-2.12-3,3.51-7.59,5.45-12.21,4.94s-8.42-3.3-10.53-7.21c-.92-1.7-3.51-.19-2.59,1.51h0Z"/>
        </g>
        <g id="_左耳" data-name="左耳">
          <path class="cls-20" d="M420.59,246.19c-.12,0-.5-1.54-.75-1.64-.13-.05-.36-.03-.5-.04-.39-.03-.77-.06-1.16-.05-.79,.01-1.59,.11-2.36,.28-1.46,.31-2.9,.92-4.15,1.74-2.5,1.63-4.51,4.15-5.2,7.09-1.39,5.93,2.3,12.16,8.02,14.04,3.94,1.3,8.23,.66,12.14,2.1,1.81,.67,2.6-2.23,.8-2.89-3.41-1.26-7.07-.95-10.59-1.69-3.05-.64-5.51-2.38-6.84-5.26-2.53-5.5,1.37-11.58,7.23-12.35,1.57-.21,3.59,.55,4.82-.74s.35-3.55-1.46-3.59c-1.93-.04-1.93,2.96,0,3h0Z"/>
        </g>
        <g id="_右耳" data-name="右耳">
          <path class="cls-20" d="M621.49,268.15c2.03-1.03,4.7-1.58,6.72-.25,.76,.5,1.41,1.27,1.67,2.16,.32,1.1-.1,2.1-.71,3.01-1.35,2.02-3.32,3.77-5.18,5.29-2,1.63-4.21,3-6.53,4.14-1.73,.86-.21,3.45,1.51,2.59,2.91-1.44,5.61-3.25,8.05-5.39,1.13-.99,2.2-2.05,3.19-3.17,1.08-1.22,2.16-2.57,2.58-4.18,.77-2.89-.87-5.84-3.4-7.25-2.96-1.65-6.53-1.03-9.42,.45-1.72,.88-.2,3.47,1.51,2.59h0Z"/>
        </g>
        <g id="_頭髮2" data-name="頭髮2">
          <path class="cls-20" d="M514.79,172.42c-5.33,2.72-11.34,5.95-14.03,11.61-1.47,3.08-1.65,6.43-1.66,9.79s.18,6.7-1.42,9.59c-1.82,3.27-5.51,4.87-8.76,6.34-1.76,.8-.23,3.38,1.51,2.59,2.91-1.32,5.93-2.74,8.14-5.11s3.18-5.55,3.43-8.81-.2-6.84,.49-10.18c.64-3.08,2.39-5.55,4.73-7.59,2.69-2.35,5.93-4.02,9.09-5.64,1.72-.88,.2-3.47-1.51-2.59h0Z"/>
        </g>
        <g id="_頭髮1" data-name="頭髮1">
          <path class="cls-20" d="M553.75,168.1c3.49,6.83,2,14.72,2.53,22.07,.46,6.34,2.28,12.79,7.6,16.73,1.55,1.15,3.05-1.45,1.51-2.59-4.98-3.68-6.07-10.53-6.22-16.31-.19-7.25,.58-14.73-2.84-21.41-.88-1.72-3.47-.2-2.59,1.51h0Z"/>
        </g>
      </g>
    </g>
    <g id="_前置-2" data-name="前置">
      <g id="_袖子-3" data-name="袖子">
        <path class="cls-14" d="M168.5,692.32c21.75,7.02,43.67,13.52,65.74,19.47,22.08,5.96,44.3,11.38,66.65,16.25,9.12,1.99,20.21,4.96,28.32-1.41,3.67-2.88,5.92-7.1,7.96-11.2,2.4-4.82,4.64-9.71,6.67-14.69,4.04-9.88,7.23-20.14,8.93-30.69,1.79-11.15,1.67-22.39,.58-33.6s-2.95-23-4.56-34.46-3.26-23.22-4.89-34.84c-.4-2.88-.81-5.76-1.21-8.65-.27-1.9-3.16-1.09-2.89,.8,3.19,22.7,6.62,45.38,9.53,68.12,1.43,11.15,2.43,22.44,1.54,33.68-.83,10.42-3.31,20.67-6.76,30.52-1.74,4.98-3.72,9.86-5.9,14.66-2.03,4.47-4.05,9.1-6.71,13.24s-6.04,6.76-10.75,7.63-9.5,0-14.05-.94c-21.83-4.53-43.52-9.86-65.07-15.57-21.63-5.72-43.12-11.96-64.44-18.72-2.63-.83-5.25-1.67-7.87-2.52-1.84-.59-2.63,2.3-.8,2.89h0Z"/>
      </g>
      <g>
        <path class="cls-17" d="M167.2,691.87c-10.18,4.78-11.42,21.24-12.84,40.04-1.37,18.17-2.11,27.28,2.23,37.14,8.24,18.71,26.19,26.86,35.04,30.72,24.37,10.64,44.62,7.3,69.46,6.12,17.86-.85,53.25,3.27,124.04,11.5,48.87,5.68,73.31,8.52,87.42,11.26,17.98,3.48,36.37,4.47,54.48,7.19,22.49,3.38,32.77,5.46,40.38-1.1,8.19-7.06,11.12-22.27,5.2-29.84-2.5-3.19-6.03-4.32-8.42-5.04-32.09-9.76-51.06-13.24-51.06-13.24-11.12-2.04-20.47-3.76-32.89-6.92-14.09-3.59-14.66-4.59-33.21-9.88-14.84-4.23-14.14-3.5-43.22-11.22-22-5.84-27.67-7.66-31.8-9.05-11.19-3.77-13.85-5.31-22.94-8.06-6.75-2.04-12.8-3.46-17.79-4.47-6.56-1.32-11.38-1.96-12.69-2.14-21.76-3.07-147.28-44.92-151.38-43Z"/>
        <path class="cls-17" d="M166.44,690.57c-7.62,3.73-10.09,12.88-11.41,20.58-1.89,11.04-2.49,22.45-3.05,33.62-.42,8.23-.26,16.52,2.98,24.23,3.73,8.87,10.09,16.24,17.75,21.95,15.15,11.3,34.4,17.15,53.13,17.78,15.98,.54,31.88-1.96,47.86-1.3,13.17,.55,26.3,1.91,39.4,3.28,21.59,2.25,43.14,4.8,64.7,7.3,21.44,2.49,42.9,4.91,64.32,7.62,6.52,.82,13.04,1.67,19.55,2.66s13.34,2.4,20.05,3.41c12.93,1.95,25.97,3.02,38.93,4.72,10.45,1.37,20.93,3.72,31.49,4.06,6.48,.21,12.8-1,17.5-5.78,5.96-6.06,8.86-15.77,7.13-24.1-.84-4.07-3.07-7.68-6.65-9.89-1.71-1.06-3.62-1.72-5.52-2.31-3.28-1.01-6.58-1.98-9.88-2.93-9.38-2.71-18.82-5.25-28.33-7.5-13.6-3.23-27.43-5.29-41.03-8.56-15.35-3.69-30.19-9.07-45.44-13.13-14.97-3.99-30.04-7.58-45-11.63-6.35-1.72-12.72-3.44-19-5.42-6.61-2.08-13.04-4.63-19.56-6.95-10.32-3.66-21.05-6.26-31.85-8.03-4.01-.66-7.98-1.19-11.93-2.11-10.68-2.48-21.21-5.63-31.72-8.73-13.95-4.11-27.86-8.37-41.77-12.63s-27.01-8.3-40.54-12.34c-8.78-2.62-17.58-5.4-26.53-7.42-1.4-.32-3.78-1.2-5.2-.6-1.75,.74-.98,3.64,.8,2.89,.17-.07-.39-.03,.21,0,.71,.02,.3,0,.83,.09,1.14,.19,2.28,.44,3.41,.71,3.73,.88,7.42,1.92,11.11,2.96,11.55,3.27,23.03,6.79,34.51,10.3,26.46,8.08,52.85,16.46,79.51,23.86,7.9,2.19,15.77,4.27,23.88,5.5,10.71,1.61,21.32,4.06,31.61,7.46,7.02,2.32,13.87,5.16,20.91,7.44,27.22,8.85,55.47,14.12,82.83,22.51,6.53,2,13,4.22,19.6,6,10.94,2.94,22.03,5.21,33.17,7.27s22.27,4.78,33.27,7.76c5.58,1.51,11.14,3.09,16.68,4.74,4.79,1.42,10.37,2.45,13.12,7.11,4.41,7.46,1.43,18.67-4,24.81-4.47,5.05-10.59,5.95-17.03,5.64-10.52-.5-20.94-2.78-31.37-4.12-12.96-1.67-26.01-2.72-38.92-4.75-6.22-.98-12.39-2.25-18.61-3.19-15.17-2.3-30.43-4.03-45.67-5.83-40.84-4.82-81.69-10.08-122.65-13.7-10.12-.89-20.32-1.78-30.49-1.56-10.01,.22-19.99,1.32-30.01,1.49-11.56,.2-23.03-.92-34.04-4.61-15.95-5.35-32.12-14.63-40.16-29.99-3.96-7.55-4.71-15.57-4.41-23.97,.4-11.1,1.1-22.44,2.76-33.42,1.12-7.39,2.89-16.99,10.33-20.63,1.73-.85,.21-3.44-1.51-2.59Z"/>
      </g>
      <path class="cls-17" d="M507.93,364.94c-1.46,1.33-7.15,6.78-9.2,15.47-1.1,4.7-2.13,9.07,.28,11.4,4.96,4.78,17.81-5.79,27.16-.11,4.17,2.53,5.7,6.75,6.82,9.83,1.49,4.12,2.64,10.66-2.11,24.4-5.67,16.4-11.32,18.03-14.24,30.5-1.67,7.13-1.26,14.52-.85,21.8,1.82,32.2,3.66,64.59,11.36,95.99,3.48,14.21,8.15,28.13,11.84,42.29,4.26,16.31,7.22,32.91,10.17,49.48,8.87,49.72,17.74,99.44,26.6,149.16,.43,2.41,.88,4.87,2.16,6.99,3.22,5.31,10.52,6.9,17.03,7.27,17.22,.98,37.02-4.75,43.9-19.65,3.16-6.86,3.08-14.56,3.76-22,1.34-14.64,5.81-28.87,8.54-43.35,5.96-31.6,3.56-63.99,.32-95.91-5.88-57.85-14.5-115.44-25.82-172.56-4.87-24.57-10.57-49.81-25.77-70.29-9.6-12.94-19.85-21.16-34.5-32.99-16.86-13.62-24.16-16.32-31.54-16.8-1.74-.11-15.5-.44-25.93,9.07Z"/>
      <ellipse id="_手掌" data-name="手掌" class="cls-4" cx="586.5" cy="823.5" rx="54.5" ry="30.5"/>
    </g>
  </g>
  <text id="_標題_後_" data-name="標題(後)" class="cls-9" transform="translate(2793.85 306.16)"><tspan x="0" y="0">筆電</tspan><tspan x="0" y="312">募集</tspan></text>
  <text id="_標題_前_" data-name="標題(前)" class="cls-8" transform="translate(2787.21 302.79)"><tspan x="0" y="0">筆電</tspan><tspan x="0" y="312">募集</tspan></text>
</svg>